<svg xmlns="http://www.w3.org/2000/svg" version="1.1" xmlns:xlink="http://www.w3.org/1999/xlink" width="512" height="512" x="0" y="0" viewBox="0 0 512 512" style="enable-background:new 0 0 512 512" xml:space="preserve" class=""><g><path d="M490.404 123.861c1.062-4.879-.425-9.757-4.031-13.363l-31.82-31.82 53.033-53.033c5.091-5.091 5.94-13.152 1.697-19.091-.425-.849-1.06-1.485-1.697-2.122-4.243-4.243-10.819-5.728-16.335-3.182L342.759 64.89c-4.879 1.908-8.061 5.94-8.908 11.031-1.062 4.879.423 9.759 4.029 13.364l31.82 31.82-53.033 53.033c-5.091 5.091-5.94 13.152-1.697 19.091.425.849 1.06 1.485 1.697 2.122 4.243 4.243 10.819 5.728 16.335 3.182l148.492-63.64c4.88-1.909 8.062-5.94 8.91-11.032z" style="" fill="#ffda2d" data-original="#ffda2d" class=""></path><path d="M316.667 195.35 507.586 4.432c.637.637 1.273 1.273 1.697 2.122 4.243 5.939 3.394 14-1.697 19.091l-53.033 53.033 31.82 31.82c3.606 3.606 5.092 8.485 4.031 13.363-.848 5.092-4.029 9.123-8.909 11.033l-148.492 63.64c-5.517 2.544-12.093 1.059-16.336-3.184z" style="" fill="#fdbf00" data-original="#fdbf00"></path><path d="m428.188 359.583-95.459 95.459c-75.942 75.942-199.828 75.944-275.772 0s-75.942-199.829 0-275.772l95.459-95.459 63.64 21.213 21.213 63.64-95.459 95.459c-29.274 29.274-29.274 76.792 0 106.066s76.792 29.274 106.066 0l95.459-95.459 63.64 21.213 21.213 63.64z" style="" fill="#ff641a" data-original="#ff641a"></path><path d="m428.188 359.583-95.459 95.459c-75.942 75.942-199.828 75.944-275.772 0l84.853-84.853c29.274 29.274 76.792 29.274 106.066 0l95.459-95.459 63.64 21.213 21.213 63.64z" style="" fill="#f03800" data-original="#f03800"></path><path d="M290.302 115.632c5.863-5.863 5.863-15.351 0-21.213l-63.64-63.64c-5.863-5.863-15.351-5.863-21.213 0l-53.033 53.033 84.853 84.853 53.033-53.033z" style="" fill="#edf5ff" data-original="#edf5ff"></path><path d="m481.221 285.337-63.64-63.64c-5.863-5.863-15.351-5.863-21.213 0l-53.033 53.033 84.853 84.853 53.033-53.033c5.863-5.862 5.863-15.35 0-21.213z" style="" fill="#d7e9ff" data-original="#d7e9ff"></path></g></svg>