<svg xmlns="http://www.w3.org/2000/svg" version="1.1" xmlns:xlink="http://www.w3.org/1999/xlink" width="512" height="512" x="0" y="0" viewBox="0 0 469.803 469.803" style="enable-background:new 0 0 512 512" xml:space="preserve" class=""><g><path d="M188.864 67.349C147.819 26.325 67.499 21.568 10.667 21.568 4.776 21.568 0 26.344 0 32.235c0 56.853 4.757 137.173 45.781 178.219a99.33 99.33 0 0 0 70.208 25.067 106.372 106.372 0 0 0 72.875-25.067c30.571-30.593 36.181-106.923 0-143.105zM459.136 63.765c-56.853 0-137.173 4.757-178.219 45.781-36.267 36.267-30.571 112.491 0 143.083a106.394 106.394 0 0 0 72.896 25.067 99.352 99.352 0 0 0 70.208-25.067c41.045-41.045 45.781-121.365 45.781-178.219-.011-5.882-4.783-10.645-10.666-10.645z" style="" fill="#4caf50" data-original="#4caf50"></path><path d="M224 448.235c-5.891 0-10.667-4.776-10.667-10.667 0-226.24-82.965-283.008-114.197-304.363a83.397 83.397 0 0 1-10.667-8.085c-4.093-4.237-3.975-10.99.262-15.083a10.666 10.666 0 0 1 14.821 0 65.692 65.692 0 0 0 7.637 5.568c27.733 18.965 93.056 63.659 115.648 210.261a255.617 255.617 0 0 1 140.331-174.485 11.541 11.541 0 0 1 14.933 4.715c2.698 4.755 1.032 10.796-3.723 13.495-.178.101-.36.197-.544.287l-1.728.811c-116.949 54.976-141.504 175.467-141.504 266.88.001 5.865-4.736 10.63-10.602 10.666z" style="" fill="#388e3c" data-original="#388e3c"></path></g></svg>