<svg xmlns="http://www.w3.org/2000/svg" version="1.1" xmlns:xlink="http://www.w3.org/1999/xlink" width="512" height="512" x="0" y="0" viewBox="0 0 510 510" style="enable-background:new 0 0 512 512" xml:space="preserve" class=""><g><linearGradient id="a"><stop offset="0" stop-color="#60b7ff"></stop><stop offset=".586" stop-color="#0182fc"></stop><stop offset="1" stop-color="#2740b0"></stop></linearGradient><linearGradient xlink:href="#a" id="c" x1="-8.26" x2="617.214" y1="260.128" y2="260.128" gradientUnits="userSpaceOnUse"></linearGradient><linearGradient xlink:href="#a" id="d" x1="-122" x2="547.319" y1="248.516" y2="248.516" gradientUnits="userSpaceOnUse"></linearGradient><linearGradient xlink:href="#a" id="e" x1="-36.015" x2="516.641" y1="255" y2="255" gradientUnits="userSpaceOnUse"></linearGradient><linearGradient id="b"><stop offset="0" stop-color="#a2e62e"></stop><stop offset=".586" stop-color="#81b823"></stop><stop offset="1" stop-color="#037e73"></stop></linearGradient><linearGradient xlink:href="#b" id="f" x1="7" x2="531.077" y1="226" y2="226" gradientUnits="userSpaceOnUse"></linearGradient><linearGradient xlink:href="#b" id="g" x1="7" x2="531.077" y1="392.208" y2="392.208" gradientUnits="userSpaceOnUse"></linearGradient><linearGradient xlink:href="#b" id="h" x1="7" x2="531.077" y1="277.507" y2="277.507" gradientUnits="userSpaceOnUse"></linearGradient><linearGradient xlink:href="#b" id="i" x1="176" x2="404.682" y1="277.507" y2="277.507" gradientUnits="userSpaceOnUse"></linearGradient><linearGradient xlink:href="#b" id="j" x1="-7.87" x2="464.655" y1="226" y2="226" gradientUnits="userSpaceOnUse"></linearGradient><linearGradient xlink:href="#b" id="k" x1="-39.368" x2="307.322" y1="392.208" y2="392.208" gradientUnits="userSpaceOnUse"></linearGradient><path fill="url(#c)" d="M510 255c0 140.833-114.167 255-255 255-43.523 0-84.499-10.904-120.346-30.128-29.51-15.826-44.783-37.291-65.9-62.954-19.931-24.221-46.241-52.183-56.201-82.672C4.406 309.302 0 282.665 0 255c0-47.079 12.758-91.178 35.006-129.029C79.31 50.595 161.246 18.72 255 18.72c28.051 0 55.044-14.19 80.288-5.823C436.783 46.538 510 142.219 510 255z" opacity="1" data-original="url(#c)"></path><path fill="url(#d)" d="M311.751 35.908c-25.666-8.683-53.164-13.392-81.762-13.392-59.498 0-109.168 25.446-152.549 59.602-13.443 13.795-30.4 24.042-40.462 40.589s-18.293 34.33-24.413 53.07a24.381 24.381 0 0 0 3.699 3.649 24.408 24.408 0 0 0 22.661 4.059l69.373-22.524a23.49 23.49 0 0 1 23.866 5.733l16.665 16.665a23.493 23.493 0 0 1 5.049 25.706c-5.323 12.679 1.333 27.198 14.413 31.441l20.05 6.503c3.023.98 5.67 2.872 7.577 5.414 5.037 6.717 3.774 16.229-2.842 21.398l-8.106 6.333a31.176 31.176 0 0 0-11.982 24.567v7.16a37.327 37.327 0 0 0 16.18 30.759l13.909 9.562a12.22 12.22 0 0 0 4.172 1.836l8.206 1.894a44.388 44.388 0 0 1 32.676 55.521l-13.658 47.479c-2.245 7.804 3.613 15.585 11.734 15.585 3.075 0 6.036-1.16 8.293-3.248l52.325-48.42a78.182 78.182 0 0 0 17.641-24.094l11.683-24.826a78.2 78.2 0 0 0 7.108-26.069l4.543-48.968a61.315 61.315 0 0 0-61.052-66.979h-9.362c-13.934 0-25.682-10.384-27.394-24.212a27.602 27.602 0 0 1 11.205-25.748l10.347-7.492a27.612 27.612 0 0 1 12.095-4.941l25.383-3.808a57.24 57.24 0 0 0 41.629-28.957 70.567 70.567 0 0 0 1.518-65.268c-8.243-16.734-22.748-29.601-40.418-35.579z" opacity="1" data-original="url(#d)"></path><path fill="url(#e)" d="M255 0c-6.735 0-13.407.266-20.01.778C366.469 10.984 469.98 120.902 469.98 255S366.469 499.016 234.99 509.222c6.603.512 13.275.778 20.01.778 73.476 0 139.694-31.076 186.227-80.802 0 0 66.773-106.842 66.773-174.198 0-49.15-35.997-133.988-35.997-133.988C427.064 48.384 346.682 0 255 0z" opacity="1" data-original="url(#e)"></path><path fill="url(#f)" d="M377.179 48.97c-8.242-16.734-22.747-29.6-40.417-35.578C311.096 4.708 283.598 0 255 0 161.522 0 79.794 50.299 35.4 125.308c-6.226 10.52-3.718 24.026 5.876 31.602a24.408 24.408 0 0 0 22.661 4.059l69.373-22.524a23.49 23.49 0 0 1 23.866 5.733l16.665 16.665a23.493 23.493 0 0 1 5.049 25.706c-5.323 12.679 1.333 27.198 14.413 31.441l20.05 6.503a15.424 15.424 0 0 1 7.577 5.414c5.037 6.717 3.774 16.229-2.842 21.398l-8.106 6.333A31.18 31.18 0 0 0 198 282.206v7.16a37.328 37.328 0 0 0 16.18 30.759l13.909 9.562a12.22 12.22 0 0 0 4.172 1.836l8.206 1.894a44.388 44.388 0 0 1 32.676 55.521l-13.658 47.479c-2.245 7.805 3.613 15.585 11.734 15.585 3.075 0 6.036-1.16 8.293-3.248l52.325-48.42a78.186 78.186 0 0 0 17.641-24.095l11.683-24.826a78.201 78.201 0 0 0 7.108-26.068l4.543-48.968a61.315 61.315 0 0 0-61.052-66.979h-9.362c-13.934 0-25.682-10.384-27.394-24.212a27.602 27.602 0 0 1 11.205-25.748l10.347-7.492a27.612 27.612 0 0 1 12.095-4.941l25.383-3.808a57.24 57.24 0 0 0 41.629-28.957 70.574 70.574 0 0 0 1.516-65.27z" opacity="1" data-original="url(#f)"></path><path fill="url(#g)" d="M103.422 379.35a80.362 80.362 0 0 1-38.44-41.06l-8.093-19.415a23.485 23.485 0 0 0-19.24-14.322c-16.97-1.77-30.1 14.574-24.73 30.769 20.694 62.401 64.841 114.103 121.995 144.672l3.697-37.025c2.641-26.46-11.371-51.794-35.189-63.619z" opacity="1" data-original="url(#g)"></path><path fill="url(#h)" d="m471.989 121.021-1.597 2.994c-13.454 25.227-9.758 56.166 9.26 77.513a68.474 68.474 0 0 1-5.849 96.918l-19.946 17.582a60.186 60.186 0 0 0-20.389 45.151v5.218a60.192 60.192 0 0 1-7.58 29.241l-8.885 15.984a15.059 15.059 0 0 0-.737 13.113c4.218 10.119 17.458 12.457 24.95 4.452C483.875 383.605 510 322.357 510 255c0-49.151-13.919-95.044-38.011-133.979z" opacity="1" data-original="url(#h)"></path><path fill="url(#i)" d="m471.989 121.021-1.597 2.994c-13.454 25.227-9.758 56.166 9.26 77.513a68.474 68.474 0 0 1-5.849 96.918l-9.024 7.954c-7.665 37.447-23.534 71.9-45.655 101.403l-2.122 3.819a15.059 15.059 0 0 0-.737 13.113c4.218 10.119 17.458 12.457 24.95 4.452C483.875 383.605 510 322.357 510 255c0-49.151-13.919-95.044-38.011-133.979z" opacity="1" data-original="url(#i)"></path><path fill="url(#j)" d="m286.208 159.436 10.347-7.492a27.612 27.612 0 0 1 12.095-4.941l25.383-3.808a57.24 57.24 0 0 0 41.629-28.957 70.567 70.567 0 0 0 1.518-65.268c-8.242-16.734-22.747-29.6-40.417-35.578C311.096 4.708 283.598 0 255 0c-6.738 0-13.412.27-20.018.783 21.439 1.664 42.136 5.97 61.76 12.609 17.67 5.978 32.175 18.844 40.417 35.578a70.564 70.564 0 0 1-1.518 65.268 57.24 57.24 0 0 1-41.629 28.957l-25.383 3.808a27.6 27.6 0 0 0-12.095 4.941l-10.347 7.492a27.606 27.606 0 0 0-11.205 25.748c1.712 13.828 13.46 24.212 27.394 24.212h9.362a61.314 61.314 0 0 1 61.052 66.979l-4.543 48.968a78.177 78.177 0 0 1-7.108 26.068l-11.683 24.826a78.198 78.198 0 0 1-17.641 24.095L261.9 428.014l-2.417 8.4c-2.245 7.805 3.613 15.585 11.734 15.585 3.075 0 6.036-1.16 8.293-3.248l52.325-48.42a78.186 78.186 0 0 0 17.641-24.095l11.683-24.826a78.201 78.201 0 0 0 7.108-26.068l4.543-48.968a61.315 61.315 0 0 0-61.052-66.979h-9.362c-13.934 0-25.682-10.384-27.394-24.212a27.603 27.603 0 0 1 11.206-25.747z" opacity="1" data-original="url(#j)"></path><path fill="url(#k)" d="M103.422 379.35a80.362 80.362 0 0 1-38.44-41.06l-8.093-19.415a23.485 23.485 0 0 0-19.24-14.322c-5.574-.582-10.728.801-14.954 3.481a23.464 23.464 0 0 1 9.183 10.841l8.093 19.415a80.366 80.366 0 0 0 38.44 41.06c23.818 11.825 37.83 37.158 35.188 63.619l-2.266 22.699a254.84 254.84 0 0 0 23.581 14.326l3.697-37.025c2.641-26.46-11.371-51.794-35.189-63.619z" opacity="1" data-original="url(#k)"></path></g></svg>