<svg xmlns="http://www.w3.org/2000/svg" version="1.1" xmlns:xlink="http://www.w3.org/1999/xlink" width="512" height="512" x="0" y="0" viewBox="0 0 32 32" style="enable-background:new 0 0 512 512" xml:space="preserve" class=""><g><path fill="#43b3ff" d="M30 12.88V27a3.009 3.009 0 0 1-3 3H7a3.009 3.009 0 0 1-3-3V11.93a9.49 9.49 0 0 1 2-.63c2.11-.43 5.62-.58 10.7.99a27.936 27.936 0 0 0 8.23 1.38A16.747 16.747 0 0 0 28 13.4a10.243 10.243 0 0 0 2-.52z" opacity="1" data-original="#43b3ff"></path><path fill="#bee7f5" d="M30 3v7.73a8.927 8.927 0 0 1-2 .63c-2.11.44-5.63.59-10.7-.98A24.117 24.117 0 0 0 6 9.26a13.054 13.054 0 0 0-2 .51V6.3L2.17 3.55a.964.964 0 0 1-.05-1.02A.984.984 0 0 1 3 2h26a1.003 1.003 0 0 1 1 1z" opacity="1" data-original="#bee7f5"></path><path fill="#0886b2" d="M30 10.73v2.15a10.243 10.243 0 0 1-2 .52 16.747 16.747 0 0 1-3.07.27 27.936 27.936 0 0 1-8.23-1.38c-5.08-1.57-8.59-1.42-10.7-.99a9.49 9.49 0 0 0-2 .63V9.77a13.054 13.054 0 0 1 2-.51 24.117 24.117 0 0 1 11.3 1.12c5.07 1.57 8.59 1.42 10.7.98a8.927 8.927 0 0 0 2-.63z" opacity="1" data-original="#0886b2"></path></g></svg>