<svg xmlns="http://www.w3.org/2000/svg" version="1.1" xmlns:xlink="http://www.w3.org/1999/xlink" width="512" height="512" x="0" y="0" viewBox="0 0 512 512" style="enable-background:new 0 0 512 512" xml:space="preserve" class=""><g><path fill="#f2d1ff" d="M165.161 346.839h181.677v16.516H165.161zM148.645 478.968h214.71v16.516h-214.71z" opacity="1" data-original="#f2d1ff"></path><g fill="#a5e3f0"><path d="M148.645 412.903h214.71v16.516h-214.71zM165.161 148.645h181.677v16.516H165.161zM148.645 16.516h214.71v16.516h-214.71z" fill="#a5e3f0" opacity="1" data-original="#a5e3f0"></path></g><path fill="#f2d1ff" d="M148.645 82.581h214.71v16.516h-214.71z" opacity="1" data-original="#f2d1ff"></path><path fill="#dfbdf0" d="M363.355 503.742V419.5a99.1 99.1 0 0 0-29.026-70.074L170.826 185.923A132.12 132.12 0 0 1 132.129 92.5V8.258A8.258 8.258 0 0 1 140.387 0h8.258a8.258 8.258 0 0 1 8.258 8.258V92.5a99.1 99.1 0 0 0 29.026 70.074l163.503 163.503a132.12 132.12 0 0 1 38.697 93.423v84.242a8.258 8.258 0 0 1-8.258 8.258h-8.258a8.258 8.258 0 0 1-8.258-8.258z" opacity="1" data-original="#dfbdf0"></path><path fill="#cbb0f2" d="M337.75 337.75 174.242 174.246c-21.831-21.839-33.855-50.867-33.855-81.746V0h-8.258a8.258 8.258 0 0 0-8.258 8.258V92.5c0 35.04 13.92 68.645 38.697 93.423l163.503 163.503a99.1 99.1 0 0 1 29.026 70.074v84.242a8.258 8.258 0 0 0 8.258 8.258h8.258v-92.5c0-30.879-12.024-59.911-33.863-81.75z" opacity="1" data-original="#cbb0f2"></path><path fill="#7ad7ee" d="M363.355 8.258V92.5a99.1 99.1 0 0 1-29.026 70.074L170.826 326.077a132.12 132.12 0 0 0-38.697 93.423v84.242a8.258 8.258 0 0 0 8.258 8.258h8.258a8.258 8.258 0 0 0 8.258-8.258V419.5a99.1 99.1 0 0 1 29.026-70.074l163.503-163.503A132.12 132.12 0 0 0 388.129 92.5V8.258A8.258 8.258 0 0 0 379.871 0h-8.258a8.258 8.258 0 0 0-8.258 8.258z" opacity="1" data-original="#7ad7ee"></path><path fill="#4bc3ef" d="M337.75 174.25 174.242 337.754c-21.831 21.839-33.855 50.867-33.855 81.746V512h-8.258a8.258 8.258 0 0 1-8.258-8.258V419.5c0-35.04 13.92-68.645 38.697-93.423l163.503-163.503A99.1 99.1 0 0 0 355.097 92.5V8.258A8.258 8.258 0 0 1 363.355 0h8.258v92.5c0 30.879-12.024 59.911-33.863 81.75z" opacity="1" data-original="#4bc3ef"></path></g></svg>