<svg xmlns="http://www.w3.org/2000/svg" version="1.1" xmlns:xlink="http://www.w3.org/1999/xlink" width="512" height="512" x="0" y="0" viewBox="0 0 512 512" style="enable-background:new 0 0 512 512" xml:space="preserve" class=""><g><path fill="#e1e1e1" d="M164.44 481.956a7.727 7.727 0 0 1-6.914-11.166l28.471-57.311a7.727 7.727 0 0 1 13.839 6.875l-28.471 57.311a7.725 7.725 0 0 1-6.925 4.291zM92.137 446.176a7.727 7.727 0 0 1-6.914-11.165l28.442-57.281a7.727 7.727 0 0 1 13.84 6.872l-28.442 57.281a7.725 7.725 0 0 1-6.926 4.293z" opacity="1" data-original="#e1e1e1"></path><path fill="#75cef8" d="M142.506 435.425a7.729 7.729 0 0 1-7.672-6.89c-1.63-14.957-8.353-41.402-35.073-50.483a7.726 7.726 0 0 1 4.972-14.632c36.132 12.28 43.831 48.457 45.464 63.441a7.727 7.727 0 0 1-7.691 8.564z" opacity="1" data-original="#75cef8"></path><path fill="#75cef8" d="M182.785 492.358a7.732 7.732 0 0 1-2.489-.413c-36.049-12.265-43.8-48.421-45.46-63.396a7.727 7.727 0 0 1 6.829-8.53c4.235-.478 8.06 2.587 8.53 6.828 1.657 14.956 8.417 41.399 35.077 50.469a7.726 7.726 0 0 1-2.487 15.042z" opacity="1" data-original="#75cef8"></path><path fill="#e1e1e1" d="M205.24 270.074a7.728 7.728 0 0 1-5.457-13.197l57.118-56.991a7.73 7.73 0 0 1 10.927.012 7.73 7.73 0 0 1-.012 10.928l-57.118 56.991a7.702 7.702 0 0 1-5.458 2.257zM249.626 314.361a7.728 7.728 0 0 1-5.457-13.197l57.118-56.991a7.73 7.73 0 0 1 10.928.012 7.729 7.729 0 0 1-.012 10.928l-57.119 56.991a7.704 7.704 0 0 1-5.458 2.257zM68.14 135.639a7.728 7.728 0 0 1-5.457-13.197l59.483-59.351a7.728 7.728 0 0 1 10.915 10.94l-59.483 59.351a7.706 7.706 0 0 1-5.458 2.257zM384.361 451.157a7.73 7.73 0 0 1-5.458-13.197l59.483-59.351a7.73 7.73 0 0 1 10.928.012 7.73 7.73 0 0 1-.012 10.928L389.819 448.9a7.708 7.708 0 0 1-5.458 2.257z" opacity="1" data-original="#e1e1e1"></path><path fill="#f47c7c" fill-rule="evenodd" d="M75.265 255.559c-13.141 0-23.799 10.635-23.799 23.746s10.658 23.746 23.799 23.746 23.799-10.635 23.799-23.746-10.658-23.746-23.799-23.746zM286.887 35.521c-13.141 0-23.799 10.635-23.799 23.746s10.658 23.746 23.799 23.746 23.799-10.635 23.799-23.746-10.658-23.746-23.799-23.746zM465.891 219.517c-13.141 0-23.799 10.635-23.799 23.746s10.658 23.746 23.799 23.746 23.799-10.635 23.799-23.746-10.658-23.746-23.799-23.746z" clip-rule="evenodd" opacity="1" data-original="#f47c7c"></path><path fill="#75cef8" fill-rule="evenodd" d="M142.282 142.539c-26.281 3.205-52.825-.029-74.142-14.626-7.038-4.807-13.491-10.868-19.185-18.327-9.082-11.946-26.252-14.277-38.195-5.216-11.973 9.091-14.309 26.223-5.198 38.14 32.063 42.073 79.603 57.719 128.749 55.272 8.263-17.482 24.149-36.363 7.971-55.243zM325.958 186.185c-34.633-34.556-80.771-52.62-128.311-51.601-14.571 16.083-22.689 31.671-8.235 54.98 25.639-2.535 50.986 3.001 72.945 15.792a123.555 123.555 0 0 1 25.055 19.317c7.622 7.605 14.104 15.996 19.331 24.97 12.819 21.911 18.368 47.201 15.856 72.812-20.587 18.88-15.097 35.138-8.235 54.951-2.453 49.037 13.199 96.5 55.366 128.492 11.973 9.061 29.143 6.731 38.224-5.186 9.082-11.946 6.746-29.078-5.198-38.14-7.476-5.682-13.549-12.121-18.397-19.143-14.601-21.24-17.871-47.755-14.63-73.948 15.214-17.831 14.951-34.031 7.943-55.243 1.053-47.432-17.081-93.497-51.714-128.053z" clip-rule="evenodd" opacity="1" data-original="#75cef8"></path><path fill="#60b7ff" fill-rule="evenodd" d="M325.958 186.185c-34.633-34.556-80.771-52.62-128.311-51.601-7.972 6.206-11.009 13.403-2.424 22.785 44.123 1.428 86.465 19.317 118.762 51.542 34.633 34.556 39.626 67.538 38.604 114.972-.438 20.395-5.607 35.983-7.972 55.213-3.212 26.223 13.141 65.819 27.77 87.06 4.818 7.022 10.892 13.461 18.368 19.143 6.979 5.303 10.688 13.315 10.746 21.474a26.448 26.448 0 0 0 6.453-6.06c9.082-11.946 6.746-29.078-5.198-38.14-7.476-5.682-13.549-12.121-18.397-19.143-14.601-21.24-17.871-47.755-14.63-73.948 9.812-7.605 17.9-39.392 7.943-55.243 1.053-47.433-17.081-93.498-51.714-128.054zM68.14 127.912c-7.038-4.807-13.491-10.868-19.185-18.327-9.082-11.945-26.252-14.276-38.195-5.215-9.023 6.847-12.586 18.298-9.87 28.612a27.183 27.183 0 0 1 4.964-5.419c11.535-9.586 28.792-8.013 38.4 3.496 6.015 7.197 12.761 12.966 19.974 17.453 21.93 13.636 48.62 15.704 74.726 11.334 3.563.175 12.44-6.672 3.329-17.307-26.282 3.205-52.826-.029-74.143-14.627z" clip-rule="evenodd" opacity="1" data-original="#60b7ff"></path><path fill="#f47c7c" fill-rule="evenodd" d="M127.623 68.562c14.63 21.27 17.871 47.755 14.659 73.977-.759 6.177-1.898 12.383-3.329 18.473-2.833 12.237-4.38 24.533-4.643 36.77-1.022 47.434 17.083 93.47 51.716 128.025s80.8 52.649 128.34 51.601c.642-12.878 2.541-25.902 5.548-38.751a130.104 130.104 0 0 0 2.687-16.2c-25.668 2.506-51.015-3.03-72.974-15.821-8.994-5.215-17.404-11.684-25.026-19.288-7.651-7.634-14.104-16.025-19.36-24.999-12.819-21.911-18.368-47.201-15.827-72.783a124.56 124.56 0 0 1 2.687-16.229c2.979-12.849 4.877-25.844 5.548-38.751 2.453-49.037-13.228-96.471-55.395-128.462-11.943-9.091-29.114-6.76-38.225 5.186-9.082 11.917-6.746 29.049 5.227 38.11 7.475 5.681 13.549 12.12 18.367 19.142z" clip-rule="evenodd" opacity="1" data-original="#f47c7c"></path><path fill="#ee6161" fill-rule="evenodd" d="M167.454 184.466a124.946 124.946 0 0 0-2.687 16.2c-2.511 25.611 3.008 50.901 15.827 72.812 5.256 8.974 11.739 17.365 19.36 24.97a122.69 122.69 0 0 0 25.055 19.317c21.93 12.791 67.28 32.778 92.919 30.273a214.647 214.647 0 0 1 1.986-9.382 130.104 130.104 0 0 0 2.687-16.2c-25.668 2.506-51.015-3.03-72.974-15.821-8.994-5.215-17.404-11.684-25.026-19.288-7.651-7.634-14.104-16.025-19.36-24.999-12.819-21.911-18.368-47.201-15.827-72.783a124.56 124.56 0 0 1 2.687-16.229 233.802 233.802 0 0 0 3.125-15.967 208.951 208.951 0 0 0 2.424-22.785c2.453-49.037-13.228-96.471-55.395-128.462-11.943-9.091-29.114-6.76-38.225 5.186-.117.146-.234.321-.38.495 4.935.466 9.782 2.244 13.958 5.419 42.196 31.992 57.848 79.455 55.395 128.491-.643 12.88-2.541 25.875-5.549 38.753z" clip-rule="evenodd" opacity="1" data-original="#ee6161"></path><path fill="#f47c7c" fill-rule="evenodd" d="M506.452 369.482c-32.063-42.073-79.632-57.69-128.778-55.243a177.77 177.77 0 0 1-4.643 36.741 174.333 174.333 0 0 0-3.3 18.502c26.252-3.234 52.825.029 74.113 14.597 7.037 4.837 13.491 10.897 19.185 18.356 9.082 11.917 26.252 14.248 38.225 5.186 6.95-5.274 10.629-13.257 10.746-21.386v-.641c-.088-5.652-1.898-11.304-5.548-16.112z" clip-rule="evenodd" opacity="1" data-original="#f47c7c"></path><path fill="#ee6161" fill-rule="evenodd" d="M506.452 369.482c-32.063-42.073-79.632-57.69-128.778-55.243a174.93 174.93 0 0 1-1.986 23.018c2.132-.029 4.263-.029 6.395 0h.204c44.503.699 86.699 17.045 115.988 55.476 2.979 3.904 4.731 8.333 5.315 12.878 5.431-5.186 8.322-12.208 8.41-19.376v-.641c-.088-5.652-1.898-11.304-5.548-16.112z" clip-rule="evenodd" opacity="1" data-original="#ee6161"></path><path fill="#f47c7c" d="M216.634 418.741c-31.652-21.193-65.158-5.431-78.094 2.33l-.009.006c-12.917 7.761-38.077 18.432-61.5 2.71a7.725 7.725 0 1 0-8.612 12.829c11.728 7.873 23.701 10.664 34.793 10.664 18.84 0 35.125-8.058 43.269-12.953l.01-.005c12.929-7.757 38.117-18.427 61.547-2.74a7.729 7.729 0 0 0 10.719-2.122 7.728 7.728 0 0 0-2.123-10.719z" opacity="1" data-original="#f47c7c"></path><path fill="#e1e1e1" d="M456.468 54.816c-.454 0-.913-.04-1.375-.123l-63.074-11.335a7.727 7.727 0 0 1-6.238-8.971c.756-4.2 4.778-6.986 8.971-6.238l63.074 11.335a7.727 7.727 0 0 1-1.358 15.332zM442.16 134.066c-.454 0-.913-.04-1.375-.123l-63.075-11.334a7.727 7.727 0 0 1-6.238-8.971c.756-4.2 4.775-6.984 8.971-6.238l63.075 11.334a7.727 7.727 0 0 1-1.358 15.332z" opacity="1" data-original="#e1e1e1"></path><path fill="#75cef8" d="M469.113 26.968a7.727 7.727 0 0 0-7.356-8.08 7.717 7.717 0 0 0-8.08 7.356c-1.317 28.101-24.899 41.91-38.841 47.641l-.016.006c-13.958 5.763-46.617 23.262-48.396 61.206a7.727 7.727 0 0 0 15.436.724c1.315-28.043 24.909-41.889 38.857-47.647.007-.003.013-.007.02-.009 13.978-5.751 46.593-23.203 48.376-61.197z" opacity="1" data-original="#75cef8"></path><path fill="#f47c7c" d="m423.015 75.361-.006-.005-.001-.001c-11.057-10.208-28.324-31.337-19.726-58.163a7.727 7.727 0 0 0-4.999-9.716c-4.058-1.297-8.413.936-9.715 5-11.63 36.283 12.859 63.983 23.946 74.221l.007.007c11.056 10.231 28.318 31.397 19.705 58.191a7.725 7.725 0 0 0 4.991 9.719 7.677 7.677 0 0 0 2.366.373 7.728 7.728 0 0 0 7.353-5.364c11.657-36.258-12.845-64.012-23.921-74.262z" opacity="1" data-original="#f47c7c"></path></g></svg>