<svg xmlns="http://www.w3.org/2000/svg" version="1.1" xmlns:xlink="http://www.w3.org/1999/xlink" width="512" height="512" x="0" y="0" viewBox="0 0 512 512" style="enable-background:new 0 0 512 512" xml:space="preserve" class=""><g><path d="M400.879 306.599 386.479 362h-257.1l-4.799-76.401 57.299-94.799V75c0-8.401 6.599-15 15-15h119.9c8.401 0 15 6.599 15 15v115.8l11.4 19.2 57.7 96.599z" style="" fill="#e6eeff" data-original="#e6eeff"></path><path d="M400.879 306.599 386.479 362h-129.6V60h59.9c8.401 0 15 6.599 15 15v115.8l11.4 19.2 57.7 96.599z" style="" fill="#dae2f2" data-original="#dae2f2"></path><path d="M390.079 512h-268.2c-58.2 0-94.2-63.6-64.2-113.701l66.901-112.7c15.899-7.5 32.699-15.599 56.398-15.599 34.2 0 56.102 13.5 75.901 27.599C279.379 313.2 299.178 330 330.978 330c27.902 0 45.601-14.7 69.901-23.401l53.401 91.7C484.28 448.4 448.58 512 390.079 512z" style="" fill="#b999ff" data-original="#b999ff"></path><path d="M390.079 512h-133.2V297.599C279.379 313.2 299.178 330 330.978 330c27.902 0 45.601-14.7 69.901-23.401l53.401 91.7C484.28 448.4 448.58 512 390.079 512z" style="" fill="#a680ff" data-original="#a680ff"></path><path d="M315.946 90h-119.9c-24.814 0-45-20.186-45-45s20.186-45 45-45h120c24.814 0 45 20.186 45 45s-20.285 45-45.1 45z" style="" fill="#c4cad9" data-original="#c4cad9"></path><path d="M331.779 120v30h-45.801c-8.099 0-15-6.601-15-15 0-8.401 6.901-15 15-15h45.801zM343.179 210h-57.201c-8.099 0-15-6.601-15-15 0-8.401 6.901-15 15-15h45.801v10.8l11.4 19.2z" style="" fill="#979ca7" data-original="#979ca7"></path><circle cx="166.05" cy="377" r="15" style="" fill="#e6eeff" data-original="#e6eeff"></circle><circle cx="346.05" cy="407" r="15" style="" fill="#dae2f2" data-original="#dae2f2"></circle><path d="M316.046 0h-59.167v90h59.067c24.814 0 45.1-20.186 45.1-45s-20.186-45-45-45z" style="" fill="#b8bfcc" data-original="#b8bfcc"></path><path d="M256.879 452c-8.284 0-15-6.716-15-15 0-8.284 6.716-15 15-15 8.284 0 15 6.716 15 15 0 8.284-6.716 15-15 15z" style="" fill="#e6eeff" data-original="#e6eeff"></path><path d="M271.879 437c0-8.286-6.716-15-15-15v30c8.284 0 15-6.716 15-15z" style="" fill="#dae2f2" data-original="#dae2f2"></path></g></svg>