<svg xmlns="http://www.w3.org/2000/svg" version="1.1" xmlns:xlink="http://www.w3.org/1999/xlink" width="512" height="512" x="0" y="0" viewBox="0 0 512 512" style="enable-background:new 0 0 512 512" xml:space="preserve" class=""><g><path fill="#d8ecfe" d="m444.294 408.242-132.43-198.634a51.512 51.512 0 0 1-8.652-28.573v-104.9H178.874v104.899c0 10.17-3.01 20.112-8.652 28.573L37.793 408.242C8.224 452.592 40.017 512 93.321 512h295.445c53.304 0 85.097-59.408 55.528-103.758z" opacity="1" data-original="#d8ecfe"></path><path fill="#c4e2ff" d="m444.294 408.242-132.43-198.634a51.512 51.512 0 0 1-8.652-28.573v-104.9h-36.057v115.817c0 10.17 3.01 20.112 8.652 28.573l138.486 207.717c9.202 13.802 4.131 26.624 1.523 31.496s-10.463 16.205-27.051 16.205H93.321c-16.588 0-24.444-11.332-27.051-16.204-1.593-2.977-4.1-8.924-3.716-16.246H26.495C25.643 478.789 53.467 512 93.321 512h295.445c53.304 0 85.097-59.408 55.528-103.758z" opacity="1" data-original="#c4e2ff"></path><path fill="#b3dafe" d="m333.457 306.994-57.649-86.469a51.514 51.514 0 0 1-8.652-28.573V76.135h-52.225v115.817c0 10.17-3.01 20.112-8.652 28.573l-57.649 86.469z" opacity="1" data-original="#b3dafe"></path><path fill="#8ac9fe" d="M301.338 306.994h32.119l-57.649-86.469a51.514 51.514 0 0 1-8.652-28.573V76.135h-28.669V197.28c0 10.17 3.01 20.112 8.652 28.573z" opacity="1" data-original="#8ac9fe"></path><path fill="#26a6fe" d="M332.77 305.964H149.317L67.793 428.242c-9.202 13.802-4.131 26.625-1.523 31.497 2.607 4.872 10.463 16.204 27.051 16.204h295.445c16.589 0 24.444-11.332 27.051-16.205 2.608-4.872 7.679-17.694-1.523-31.496z" opacity="1" data-original="#26a6fe"></path><path fill="#0593fc" d="M414.294 428.242 332.77 305.964h-32.119l81.524 122.279.107.161c4.264 6.47-.517 15.09-8.265 15.09H62.554c-.385 7.322 2.123 13.27 3.716 16.246 2.607 4.872 10.463 16.204 27.051 16.204h295.445c16.589 0 24.444-11.332 27.051-16.205 2.608-4.872 7.679-17.694-1.523-31.497z" opacity="1" data-original="#0593fc"></path><circle cx="222.004" cy="360.048" r="20.604" fill="#ffffff" opacity="1" data-original="#ffffff"></circle><path fill="#eaf6ff" d="M224.474 339.607a20.481 20.481 0 0 1 2.681 10.14c0 11.379-9.225 20.604-20.604 20.604a20.74 20.74 0 0 1-2.47-.162c3.54 6.243 10.234 10.464 17.923 10.464 11.379 0 20.604-9.225 20.604-20.604 0-10.542-7.922-19.22-18.134-20.442z" opacity="1" data-original="#eaf6ff"></path><path fill="#c4e2ff" d="M317.797 77.165H164.29c-8.534 0-15.453-6.918-15.453-15.453v-46.26C148.838 6.918 155.756 0 164.29 0h153.506c8.534 0 15.453 6.918 15.453 15.453v46.26c0 8.534-6.918 15.452-15.452 15.452z" opacity="1" data-original="#c4e2ff"></path><path fill="#b3dafe" d="M317.797 0h-27.801v29.36c0 8.534-6.918 15.453-15.453 15.453H148.838v16.9c0 8.534 6.918 15.453 15.453 15.453h153.506c8.534 0 15.453-6.918 15.453-15.453v-46.26C333.249 6.919 326.331 0 317.797 0z" opacity="1" data-original="#b3dafe"></path><path fill="#a2e62e" d="m351.258 187.311-64.969 112.53C253 357.5 294.612 429.573 361.19 429.573c66.579 0 108.191-72.074 74.901-129.733l-64.969-112.53c-4.413-7.645-15.449-7.645-19.864.001z" opacity="1" data-original="#a2e62e"></path><path fill="#97d729" d="m436.092 299.841-64.969-112.53c-4.414-7.646-15.45-7.646-19.865 0l-8.165 14.142 50.566 87.583c33.24 57.573-8.2 129.513-74.605 129.728 12.236 6.832 26.497 10.81 42.135 10.81 66.581-.001 108.193-72.074 74.903-129.733z" opacity="1" data-original="#97d729"></path><circle cx="456.191" cy="159.941" r="29.338" fill="#b3dafe" opacity="1" data-original="#b3dafe"></circle><path fill="#8ac9fe" d="M466.118 132.353a29.237 29.237 0 0 1 2.078 10.842c0 16.203-13.135 29.338-29.338 29.338a29.26 29.26 0 0 1-9.893-1.715c4.324 10.811 14.871 18.46 27.227 18.46 16.203 0 29.338-13.135 29.338-29.338-.001-12.714-8.1-23.515-19.412-27.587z" opacity="1" data-original="#8ac9fe"></path><circle cx="412.882" cy="38.583" r="29.338" fill="#b3dafe" opacity="1" data-original="#b3dafe"></circle><path fill="#8ac9fe" d="M422.975 11.027a29.25 29.25 0 0 1 2.006 10.66c0 16.203-13.135 29.338-29.338 29.338-3.547 0-6.946-.63-10.093-1.783 4.267 10.93 14.891 18.678 27.332 18.678 16.203 0 29.338-13.135 29.338-29.338 0-12.656-8.014-23.44-19.245-27.555z" opacity="1" data-original="#8ac9fe"></path><circle cx="155.042" cy="417.738" r="25.755" fill="#ffffff" opacity="1" data-original="#ffffff"></circle><path fill="#eaf6ff" d="M160.635 392.6a25.626 25.626 0 0 1 4.709 14.837c0 14.224-11.531 25.755-25.755 25.755-1.921 0-3.791-.217-5.593-.616 4.663 6.602 12.348 10.918 21.045 10.918 14.224 0 25.755-11.531 25.755-25.755.001-12.303-8.628-22.584-20.161-25.139z" opacity="1" data-original="#eaf6ff"></path><path fill="#8bc727" d="M398.467 336.242a7.5 7.5 0 0 0-10.607 0l-19.169 19.169v-36.272l23.041-23.041a7.5 7.5 0 0 0-10.607-10.606l-12.434 12.434v-37.977c0-4.142-3.357-7.5-7.5-7.5s-7.5 3.358-7.5 7.5v37.977l-12.434-12.434a7.5 7.5 0 0 0-10.607 10.606l23.041 23.041v36.272l-19.169-19.169a7.5 7.5 0 0 0-10.607 10.606l29.776 29.776v10.514c0 4.142 3.357 7.5 7.5 7.5s7.5-3.358 7.5-7.5v-10.514l29.776-29.776a7.5 7.5 0 0 0 0-10.606z" opacity="1" data-original="#8bc727"></path></g></svg>