<svg xmlns="http://www.w3.org/2000/svg" version="1.1" xmlns:xlink="http://www.w3.org/1999/xlink" width="512" height="512" x="0" y="0" viewBox="0 0 497 497" style="enable-background:new 0 0 512 512" xml:space="preserve" class=""><g><path fill="#adaca7" d="m275.57 401-84.14 30-3.19 11.15C183.71 458.02 166.5 471 150 471v7.5h174.5z" opacity="1" data-original="#adaca7"></path><path fill="#8f8f8b" d="M308.76 442.15 297 401l-48.5-30-48.5 30-8.57 30h84.14l3.19 11.15C283.29 458.02 300.5 471 317 471l15 7.5 15-7.5c-16.5 0-33.71-12.98-38.24-28.85z" opacity="1" data-original="#8f8f8b"></path><path fill="#adaca7" d="M437 401h30c16.5 0 30-13.5 30-30v-60l-60-60z" opacity="1" data-original="#adaca7"></path><path fill="#cbc9c2" d="M0 371c0 16.5 13.5 30 30 30h407c16.5 0 30-13.5 30-30V191L0 311z" opacity="1" data-original="#cbc9c2"></path><path fill="#404242" d="M467 11h-30l30 300h30V41c0-16.5-13.5-30-30-30z" opacity="1" data-original="#404242"></path><path fill="#565959" d="M467 41c0-16.5-13.5-30-30-30H30C13.5 11 0 24.5 0 41v270h467v-30L248.5 160.987z" opacity="1" data-original="#565959"></path><path fill="#4b88d5" d="m467 40.995-29.994-.021c0 .005-188.506 120.013-188.506 120.013S437.002 280.998 437 281l29.999-.02c.001 0-.002-239.981.001-239.985z" opacity="1" data-original="#4b88d5"></path><path fill="#69a7ff" d="m437 40.995-406.912-.022c-.025.012-.046 240.022-.088 240.027l406.99-.02c.005 0-.032-239.981.01-239.985z" opacity="1" data-original="#69a7ff"></path><circle cx="248.5" cy="356" r="15" fill="#ffffff" opacity="1" data-original="#ffffff"></circle><path fill="#8f8f8b" d="M403.5 486h-310c-4.142 0-7.5-3.357-7.5-7.5s3.358-7.5 7.5-7.5h310c4.142 0 7.5 3.357 7.5 7.5s-3.358 7.5-7.5 7.5z" opacity="1" data-original="#8f8f8b"></path></g></svg>