<svg xmlns="http://www.w3.org/2000/svg" version="1.1" xmlns:xlink="http://www.w3.org/1999/xlink" width="512" height="512" x="0" y="0" viewBox="0 0 512 512" style="enable-background:new 0 0 512 512" xml:space="preserve" class=""><g><path fill="#3e5959" d="M257 295h120v70H257zm0 0" opacity="1" data-original="#3e5959"></path><path fill="#293939" d="M317 295h60v70h-60zm0 0" opacity="1" data-original="#293939"></path><path fill="#3e5959" d="M165 390H15c-8.285 0-15-6.715-15-15V45c0-8.285 6.715-15 15-15h150c8.285 0 15 6.715 15 15v330c0 8.285-6.715 15-15 15zm0 0" opacity="1" data-original="#3e5959"></path><path fill="#293939" d="M180 45v330c0 8.281-6.719 15-15 15H90V30h75c8.281 0 15 6.719 15 15zm0 0" opacity="1" data-original="#293939"></path><path fill="#547983" d="M0 105h180v60H0zm0 0" opacity="1" data-original="#547983" class=""></path><path fill="#3e5959" d="M90 105h90v60H90zm0 0" opacity="1" data-original="#3e5959"></path><path fill="#81e885" d="M105 348c0 8.285-6.715 15-15 15s-15-6.715-15-15 6.715-15 15-15 15 6.715 15 15zm0 0" opacity="1" data-original="#81e885"></path><path fill="#5dc983" d="M105 348c0 8.281-6.719 15-15 15v-30c8.281 0 15 6.719 15 15zm0 0" opacity="1" data-original="#5dc983"></path><path fill="#547983" d="M482 300H152c-16.543 0-30-13.457-30-30V30c0-16.543 13.457-30 30-30h330c16.543 0 30 13.457 30 30v240c0 16.543-13.457 30-30 30zm0 0" opacity="1" data-original="#547983" class=""></path><path fill="#3e5959" d="M512 30v240c0 16.54-13.46 30-30 30H317V0h165c16.54 0 30 13.46 30 30zm0 0" opacity="1" data-original="#3e5959"></path><path fill="#19c0ef" d="M152 30h330v240H152zm0 0" opacity="1" data-original="#19c0ef"></path><path fill="#159be1" d="M317 30h165v240H317zm0 0" opacity="1" data-original="#159be1" class=""></path><path fill="#547983" d="M407 390H227c-8.285 0-15-6.715-15-15s6.715-15 15-15h180c8.285 0 15 6.715 15 15s-6.715 15-15 15zm0 0" opacity="1" data-original="#547983" class=""></path><path fill="#3e5959" d="M422 375c0 8.281-6.719 15-15 15h-90v-30h90c8.281 0 15 6.719 15 15zm0 0" opacity="1" data-original="#3e5959"></path></g></svg>