<svg xmlns="http://www.w3.org/2000/svg" version="1.1" xmlns:xlink="http://www.w3.org/1999/xlink" width="512" height="512" x="0" y="0" viewBox="0 0 510 510" style="enable-background:new 0 0 512 512" xml:space="preserve" class=""><g><linearGradient id="a"><stop offset="0" stop-color="#e4f2ff"></stop><stop offset="1" stop-color="#b2cbff"></stop></linearGradient><linearGradient xlink:href="#a" id="k" x1="420.881" x2="420.881" y1="388.704" y2="435.379" gradientUnits="userSpaceOnUse"></linearGradient><linearGradient id="b"><stop offset="0" stop-color="#3f3ced" stop-opacity="0"></stop><stop offset=".28" stop-color="#3c3de4" stop-opacity=".28"></stop><stop offset=".731" stop-color="#3541cc" stop-opacity=".731"></stop><stop offset="1" stop-color="#2f43bb"></stop></linearGradient><linearGradient xlink:href="#b" id="l" x1="420.881" x2="420.881" y1="389.38" y2="467.878" gradientUnits="userSpaceOnUse"></linearGradient><linearGradient id="c"><stop offset="0" stop-color="#fff" stop-opacity="0"></stop><stop offset="1" stop-color="#fff"></stop></linearGradient><linearGradient xlink:href="#c" id="m" x1="420.688" x2="402.076" y1="401.956" y2="356.949" gradientUnits="userSpaceOnUse"></linearGradient><linearGradient xlink:href="#a" id="n" x1="420.881" x2="420.881" y1="352.704" y2="399.379" gradientUnits="userSpaceOnUse"></linearGradient><linearGradient xlink:href="#b" id="o" x1="420.881" x2="420.881" y1="353.381" y2="431.878" gradientUnits="userSpaceOnUse"></linearGradient><linearGradient xlink:href="#c" id="p" x1="420.688" x2="402.076" y1="365.956" y2="320.949" gradientUnits="userSpaceOnUse"></linearGradient><linearGradient xlink:href="#a" id="q" x1="420.881" x2="420.881" y1="316.704" y2="363.379" gradientUnits="userSpaceOnUse"></linearGradient><linearGradient xlink:href="#b" id="r" x1="420.881" x2="420.881" y1="317.381" y2="395.878" gradientUnits="userSpaceOnUse"></linearGradient><linearGradient xlink:href="#c" id="s" x1="420.688" x2="402.076" y1="329.956" y2="284.949" gradientUnits="userSpaceOnUse"></linearGradient><linearGradient xlink:href="#a" id="t" x1="420.881" x2="420.881" y1="280.704" y2="327.379" gradientUnits="userSpaceOnUse"></linearGradient><linearGradient xlink:href="#b" id="u" x1="420.881" x2="420.881" y1="281.381" y2="359.878" gradientUnits="userSpaceOnUse"></linearGradient><linearGradient xlink:href="#c" id="v" x1="420.688" x2="402.076" y1="293.956" y2="248.95" gradientUnits="userSpaceOnUse"></linearGradient><linearGradient xlink:href="#a" id="w" x1="420.881" x2="420.881" y1="244.704" y2="291.379" gradientUnits="userSpaceOnUse"></linearGradient><linearGradient xlink:href="#b" id="x" x1="420.881" x2="420.881" y1="245.381" y2="323.878" gradientUnits="userSpaceOnUse"></linearGradient><linearGradient xlink:href="#c" id="y" x1="420.688" x2="402.076" y1="257.956" y2="212.95" gradientUnits="userSpaceOnUse"></linearGradient><linearGradient xlink:href="#a" id="z" x1="420.881" x2="420.881" y1="208.704" y2="255.38" gradientUnits="userSpaceOnUse"></linearGradient><linearGradient xlink:href="#b" id="A" x1="420.881" x2="420.881" y1="209.381" y2="287.879" gradientUnits="userSpaceOnUse"></linearGradient><linearGradient xlink:href="#c" id="B" x1="420.688" x2="402.076" y1="221.956" y2="176.95" gradientUnits="userSpaceOnUse"></linearGradient><linearGradient xlink:href="#a" id="C" x1="420.881" x2="420.881" y1="172.705" y2="219.38" gradientUnits="userSpaceOnUse"></linearGradient><linearGradient xlink:href="#b" id="D" x1="420.881" x2="420.881" y1="173.381" y2="251.879" gradientUnits="userSpaceOnUse"></linearGradient><linearGradient xlink:href="#c" id="E" x1="420.688" x2="402.076" y1="185.957" y2="140.95" gradientUnits="userSpaceOnUse"></linearGradient><linearGradient xlink:href="#a" id="F" x1="420.881" x2="420.881" y1="136.705" y2="183.38" gradientUnits="userSpaceOnUse"></linearGradient><linearGradient xlink:href="#b" id="G" x1="420.881" x2="420.881" y1="137.382" y2="215.879" gradientUnits="userSpaceOnUse"></linearGradient><linearGradient xlink:href="#c" id="H" x1="420.688" x2="402.076" y1="149.957" y2="104.95" gradientUnits="userSpaceOnUse"></linearGradient><linearGradient id="d"><stop offset="0" stop-color="#4ab272"></stop><stop offset=".339" stop-color="#47b071"></stop><stop offset=".55" stop-color="#3fa870"></stop><stop offset=".727" stop-color="#309b6d"></stop><stop offset=".884" stop-color="#1c8869"></stop><stop offset="1" stop-color="#077565"></stop></linearGradient><radialGradient xlink:href="#d" id="I" cx="198.573" cy="207.029" r="337.577" gradientUnits="userSpaceOnUse"></radialGradient><linearGradient id="e"><stop offset="0" stop-color="#005a01" stop-opacity="0"></stop><stop offset="1" stop-color="#005a01"></stop></linearGradient><linearGradient xlink:href="#e" id="J" x1="134.63" x2="123.816" y1="363.216" y2="700.27" gradientUnits="userSpaceOnUse"></linearGradient><linearGradient xlink:href="#e" id="K" x1="233.072" x2="281.14" y1="429.623" y2="613.08" gradientUnits="userSpaceOnUse"></linearGradient><linearGradient xlink:href="#e" id="L" x1="381.797" x2="364.173" y1="426.02" y2="651.936" gradientUnits="userSpaceOnUse"></linearGradient><linearGradient id="f"><stop offset="0" stop-color="#91f27f" stop-opacity="0"></stop><stop offset="1" stop-color="#ffed82"></stop></linearGradient><linearGradient xlink:href="#f" id="M" x1="235.205" x2="9.29" y1="294.097" y2="-109.666" gradientUnits="userSpaceOnUse"></linearGradient><linearGradient xlink:href="#e" id="N" x1="392.795" x2="106.518" y1="372.285" y2="210.302" gradientUnits="userSpaceOnUse"></linearGradient><linearGradient id="g"><stop offset="0" stop-color="#ffc738"></stop><stop offset=".188" stop-color="#fdbf3c"></stop><stop offset=".484" stop-color="#f7a848"></stop><stop offset=".849" stop-color="#ed835b"></stop><stop offset="1" stop-color="#e97264"></stop></linearGradient><linearGradient xlink:href="#g" id="O" x1="225.851" x2="382.661" y1="245.548" y2="380.729" gradientUnits="userSpaceOnUse"></linearGradient><linearGradient xlink:href="#d" id="P" x1="240.563" x2="293.437" y1="-15.177" y2="96.579" gradientUnits="userSpaceOnUse"></linearGradient><linearGradient xlink:href="#e" id="Q" x1="257.93" x2="329.229" y1="43.815" y2="154.369" gradientUnits="userSpaceOnUse"></linearGradient><linearGradient xlink:href="#e" id="R" x1="261.424" x2="265.029" y1="3.731" y2="39.18" gradientUnits="userSpaceOnUse"></linearGradient><linearGradient xlink:href="#f" id="S" x1="245.783" x2="109.392" y1="47.352" y2="44.949" gradientUnits="userSpaceOnUse"></linearGradient><linearGradient xlink:href="#g" id="T" x1="258.657" x2="258.657" y1="87.663" y2="104.657" gradientUnits="userSpaceOnUse"></linearGradient><linearGradient xlink:href="#e" id="U" x1="245.471" x2="139.724" y1="403.068" y2="394.256" gradientUnits="userSpaceOnUse"></linearGradient><linearGradient id="h"><stop offset="0" stop-color="#ffd945"></stop><stop offset=".304" stop-color="#ffcd3e"></stop><stop offset=".856" stop-color="#ffad2b"></stop><stop offset="1" stop-color="#ffa325"></stop></linearGradient><linearGradient xlink:href="#h" id="V" x1="89.119" x2="89.119" y1="474.742" y2="521.417" gradientUnits="userSpaceOnUse"></linearGradient><linearGradient id="i"><stop offset="0" stop-color="#e87264" stop-opacity="0"></stop><stop offset="1" stop-color="#ff7044"></stop></linearGradient><linearGradient xlink:href="#i" id="W" x1="89.119" x2="89.119" y1="475.419" y2="553.916" gradientUnits="userSpaceOnUse"></linearGradient><linearGradient id="j"><stop offset="0" stop-color="#ffd945" stop-opacity="0"></stop><stop offset="1" stop-color="#fbed21"></stop></linearGradient><linearGradient xlink:href="#j" id="X" x1="88.925" x2="70.314" y1="487.994" y2="442.987" gradientUnits="userSpaceOnUse"></linearGradient><linearGradient xlink:href="#h" id="Y" x1="89.119" x2="89.119" y1="438.742" y2="485.417" gradientUnits="userSpaceOnUse"></linearGradient><linearGradient xlink:href="#i" id="Z" x1="89.119" x2="89.119" y1="439.419" y2="517.916" gradientUnits="userSpaceOnUse"></linearGradient><linearGradient xlink:href="#j" id="aa" x1="88.925" x2="70.314" y1="451.994" y2="406.988" gradientUnits="userSpaceOnUse"></linearGradient><linearGradient xlink:href="#h" id="ab" x1="89.119" x2="89.119" y1="402.742" y2="449.417" gradientUnits="userSpaceOnUse"></linearGradient><linearGradient xlink:href="#i" id="ac" x1="89.119" x2="89.119" y1="403.419" y2="481.916" gradientUnits="userSpaceOnUse"></linearGradient><linearGradient xlink:href="#j" id="ad" x1="88.925" x2="70.314" y1="415.994" y2="370.988" gradientUnits="userSpaceOnUse"></linearGradient><linearGradient xlink:href="#h" id="ae" x1="89.119" x2="89.119" y1="366.742" y2="413.418" gradientUnits="userSpaceOnUse"></linearGradient><linearGradient xlink:href="#i" id="af" x1="89.119" x2="89.119" y1="367.419" y2="445.917" gradientUnits="userSpaceOnUse"></linearGradient><linearGradient xlink:href="#j" id="ag" x1="88.925" x2="70.314" y1="379.994" y2="334.988" gradientUnits="userSpaceOnUse"></linearGradient><linearGradient xlink:href="#h" id="ah" x1="89.119" x2="89.119" y1="330.743" y2="377.418" gradientUnits="userSpaceOnUse"></linearGradient><linearGradient xlink:href="#i" id="ai" x1="89.119" x2="89.119" y1="331.419" y2="409.917" gradientUnits="userSpaceOnUse"></linearGradient><linearGradient xlink:href="#j" id="aj" x1="88.925" x2="70.314" y1="343.995" y2="298.988" gradientUnits="userSpaceOnUse"></linearGradient><linearGradient xlink:href="#h" id="ak" x1="89.119" x2="89.119" y1="294.743" y2="341.418" gradientUnits="userSpaceOnUse"></linearGradient><linearGradient xlink:href="#i" id="al" x1="89.119" x2="89.119" y1="295.419" y2="373.917" gradientUnits="userSpaceOnUse"></linearGradient><linearGradient xlink:href="#j" id="am" x1="88.925" x2="70.314" y1="307.995" y2="262.988" gradientUnits="userSpaceOnUse"></linearGradient><linearGradient xlink:href="#h" id="an" x1="383.464" x2="383.464" y1="474.742" y2="521.417" gradientUnits="userSpaceOnUse"></linearGradient><linearGradient xlink:href="#i" id="ao" x1="383.464" x2="383.464" y1="475.419" y2="553.916" gradientUnits="userSpaceOnUse"></linearGradient><linearGradient xlink:href="#j" id="ap" x1="383.27" x2="364.659" y1="487.994" y2="442.987" gradientUnits="userSpaceOnUse"></linearGradient><linearGradient xlink:href="#h" id="aq" x1="383.464" x2="383.464" y1="438.742" y2="485.417" gradientUnits="userSpaceOnUse"></linearGradient><linearGradient xlink:href="#i" id="ar" x1="383.464" x2="383.464" y1="439.419" y2="517.916" gradientUnits="userSpaceOnUse"></linearGradient><linearGradient xlink:href="#j" id="as" x1="383.27" x2="364.659" y1="451.994" y2="406.988" gradientUnits="userSpaceOnUse"></linearGradient><linearGradient xlink:href="#h" id="at" x1="36.078" x2="83.442" y1="184.086" y2="247.239" gradientTransform="translate(.612 1.309)" gradientUnits="userSpaceOnUse"></linearGradient><linearGradient xlink:href="#h" id="au" x1="112.252" x2="145.746" y1="54.853" y2="99.512" gradientTransform="translate(.612 1.309)" gradientUnits="userSpaceOnUse"></linearGradient><linearGradient xlink:href="#h" id="av" x1="400.665" x2="434.16" y1="78.959" y2="123.618" gradientTransform="translate(.612 1.309)" gradientUnits="userSpaceOnUse"></linearGradient><path fill="url(#k)" d="M499.37 423.962H342.392c-3 0-5.433-2.432-5.433-5.433v-25.134a5.432 5.432 0 0 1 5.433-5.433H499.37c3 0 5.433 2.432 5.433 5.433v25.134c0 3-2.432 5.433-5.433 5.433z" opacity="1" data-original="url(#k)"></path><path fill="url(#l)" d="M479.443 423.962H362.319a4.718 4.718 0 0 1-4.718-4.718V392.68a4.718 4.718 0 0 1 4.718-4.718h117.124a4.718 4.718 0 0 1 4.718 4.718v26.564a4.718 4.718 0 0 1-4.718 4.718z" opacity="1" data-original="url(#l)"></path><path fill="url(#l)" d="M441.047 423.962h-40.332a2.845 2.845 0 0 1-2.845-2.845v-30.31a2.845 2.845 0 0 1 2.845-2.845h40.332a2.845 2.845 0 0 1 2.845 2.845v30.31a2.845 2.845 0 0 1-2.845 2.845z" opacity="1" data-original="url(#l)"></path><path fill="url(#m)" d="M347.13 392.342c-3 0-5.433 2.432-5.433 5.433v25.134c0 .349.036.689.099 1.019.196.021.395.034.597.034H499.37c3 0 5.433-2.432 5.433-5.433v-25.134c0-.349-.036-.689-.099-1.019a5.598 5.598 0 0 0-.597-.034z" opacity="1" data-original="url(#m)"></path><path fill="url(#n)" d="M499.37 387.962H342.392c-3 0-5.433-2.432-5.433-5.433v-25.134a5.432 5.432 0 0 1 5.433-5.433H499.37c3 0 5.433 2.432 5.433 5.433v25.134c0 3-2.432 5.433-5.433 5.433z" opacity="1" data-original="url(#n)"></path><path fill="url(#o)" d="M479.443 387.962H362.319a4.718 4.718 0 0 1-4.718-4.718V356.68a4.718 4.718 0 0 1 4.718-4.718h117.124a4.718 4.718 0 0 1 4.718 4.718v26.565a4.717 4.717 0 0 1-4.718 4.717z" opacity="1" data-original="url(#o)"></path><path fill="url(#o)" d="M441.047 387.962h-40.332a2.845 2.845 0 0 1-2.845-2.845v-30.31a2.845 2.845 0 0 1 2.845-2.845h40.332a2.845 2.845 0 0 1 2.845 2.845v30.31a2.845 2.845 0 0 1-2.845 2.845z" opacity="1" data-original="url(#o)"></path><path fill="url(#p)" d="M347.13 356.342c-3 0-5.433 2.432-5.433 5.433v25.134c0 .349.036.688.099 1.019.196.022.395.034.597.034H499.37c3 0 5.433-2.432 5.433-5.433v-25.134c0-.349-.036-.688-.099-1.019a5.347 5.347 0 0 0-.597-.034z" opacity="1" data-original="url(#p)"></path><path fill="url(#q)" d="M499.37 351.962H342.392c-3 0-5.433-2.432-5.433-5.433v-25.134a5.432 5.432 0 0 1 5.433-5.433H499.37c3 0 5.433 2.432 5.433 5.433v25.134a5.432 5.432 0 0 1-5.433 5.433z" opacity="1" data-original="url(#q)"></path><path fill="url(#r)" d="M479.443 351.962H362.319a4.718 4.718 0 0 1-4.718-4.718V320.68a4.718 4.718 0 0 1 4.718-4.718h117.124a4.718 4.718 0 0 1 4.718 4.718v26.564a4.718 4.718 0 0 1-4.718 4.718z" opacity="1" data-original="url(#r)"></path><path fill="url(#r)" d="M441.047 351.962h-40.332a2.845 2.845 0 0 1-2.845-2.845v-30.31a2.845 2.845 0 0 1 2.845-2.845h40.332a2.845 2.845 0 0 1 2.845 2.845v30.31a2.845 2.845 0 0 1-2.845 2.845z" opacity="1" data-original="url(#r)"></path><path fill="url(#s)" d="M347.13 320.342c-3 0-5.433 2.432-5.433 5.433v25.134c0 .349.036.689.099 1.019.196.021.395.034.597.034H499.37c3 0 5.433-2.432 5.433-5.433v-25.134c0-.349-.036-.689-.099-1.019a5.598 5.598 0 0 0-.597-.034z" opacity="1" data-original="url(#s)"></path><path fill="url(#t)" d="M499.37 315.962H342.392c-3 0-5.433-2.432-5.433-5.433v-25.134a5.432 5.432 0 0 1 5.433-5.433H499.37c3 0 5.433 2.432 5.433 5.433v25.134a5.432 5.432 0 0 1-5.433 5.433z" opacity="1" data-original="url(#t)"></path><path fill="url(#u)" d="M479.443 315.962H362.319a4.718 4.718 0 0 1-4.718-4.718V284.68a4.718 4.718 0 0 1 4.718-4.718h117.124a4.718 4.718 0 0 1 4.718 4.718v26.565a4.717 4.717 0 0 1-4.718 4.717z" opacity="1" data-original="url(#u)"></path><path fill="url(#u)" d="M441.047 315.962h-40.332a2.845 2.845 0 0 1-2.845-2.845v-30.31a2.845 2.845 0 0 1 2.845-2.845h40.332a2.845 2.845 0 0 1 2.845 2.845v30.31a2.845 2.845 0 0 1-2.845 2.845z" opacity="1" data-original="url(#u)"></path><path fill="url(#v)" d="M347.13 284.342c-3 0-5.433 2.432-5.433 5.433v25.134c0 .349.036.689.099 1.019.196.022.395.034.597.034H499.37c3 0 5.433-2.432 5.433-5.433v-25.134c0-.349-.036-.688-.099-1.019a5.347 5.347 0 0 0-.597-.034z" opacity="1" data-original="url(#v)"></path><path fill="url(#w)" d="M499.37 279.962H342.392c-3 0-5.433-2.432-5.433-5.433v-25.134a5.432 5.432 0 0 1 5.433-5.433H499.37c3 0 5.433 2.432 5.433 5.433v25.134a5.432 5.432 0 0 1-5.433 5.433z" opacity="1" data-original="url(#w)"></path><path fill="url(#x)" d="M479.443 279.962H362.319a4.718 4.718 0 0 1-4.718-4.718V248.68a4.718 4.718 0 0 1 4.718-4.718h117.124a4.718 4.718 0 0 1 4.718 4.718v26.564a4.718 4.718 0 0 1-4.718 4.718z" opacity="1" data-original="url(#x)"></path><path fill="url(#x)" d="M441.047 279.962h-40.332a2.845 2.845 0 0 1-2.845-2.845v-30.31a2.845 2.845 0 0 1 2.845-2.845h40.332a2.845 2.845 0 0 1 2.845 2.845v30.31a2.845 2.845 0 0 1-2.845 2.845z" opacity="1" data-original="url(#x)"></path><path fill="url(#y)" d="M347.13 248.342c-3 0-5.433 2.432-5.433 5.433v25.134c0 .349.036.689.099 1.019.196.021.395.034.597.034H499.37c3 0 5.433-2.432 5.433-5.433v-25.134c0-.349-.036-.689-.099-1.019a5.598 5.598 0 0 0-.597-.034z" opacity="1" data-original="url(#y)"></path><path fill="url(#z)" d="M499.37 243.962H342.392c-3 0-5.433-2.432-5.433-5.433v-25.134a5.432 5.432 0 0 1 5.433-5.433H499.37c3 0 5.433 2.432 5.433 5.433v25.134a5.432 5.432 0 0 1-5.433 5.433z" opacity="1" data-original="url(#z)"></path><path fill="url(#A)" d="M479.443 243.962H362.319a4.718 4.718 0 0 1-4.718-4.718V212.68a4.718 4.718 0 0 1 4.718-4.718h117.124a4.718 4.718 0 0 1 4.718 4.718v26.564a4.718 4.718 0 0 1-4.718 4.718z" opacity="1" data-original="url(#A)"></path><path fill="url(#A)" d="M441.047 243.962h-40.332a2.845 2.845 0 0 1-2.845-2.845v-30.31a2.845 2.845 0 0 1 2.845-2.845h40.332a2.845 2.845 0 0 1 2.845 2.845v30.31a2.845 2.845 0 0 1-2.845 2.845z" opacity="1" data-original="url(#A)"></path><path fill="url(#B)" d="M347.13 212.342c-3 0-5.433 2.432-5.433 5.433v25.134c0 .349.036.688.099 1.019.196.021.395.034.597.034H499.37c3 0 5.433-2.432 5.433-5.433v-25.134c0-.349-.036-.688-.099-1.019a5.598 5.598 0 0 0-.597-.034z" opacity="1" data-original="url(#B)"></path><path fill="url(#C)" d="M499.37 207.963H342.392c-3 0-5.433-2.432-5.433-5.433v-25.134a5.432 5.432 0 0 1 5.433-5.433H499.37c3 0 5.433 2.432 5.433 5.433v25.134c0 3-2.432 5.433-5.433 5.433z" opacity="1" data-original="url(#C)"></path><path fill="url(#D)" d="M479.443 207.963H362.319a4.718 4.718 0 0 1-4.718-4.718V176.68a4.718 4.718 0 0 1 4.718-4.718h117.124a4.718 4.718 0 0 1 4.718 4.718v26.564a4.718 4.718 0 0 1-4.718 4.719z" opacity="1" data-original="url(#D)"></path><path fill="url(#D)" d="M441.047 207.963h-40.332a2.845 2.845 0 0 1-2.845-2.845v-30.31a2.845 2.845 0 0 1 2.845-2.845h40.332a2.845 2.845 0 0 1 2.845 2.845v30.31a2.845 2.845 0 0 1-2.845 2.845z" opacity="1" data-original="url(#D)"></path><path fill="url(#E)" d="M347.13 176.342c-3 0-5.433 2.432-5.433 5.433v25.134c0 .349.036.689.099 1.019.196.021.395.034.597.034H499.37c3 0 5.433-2.432 5.433-5.433v-25.134c0-.349-.036-.689-.099-1.019a5.598 5.598 0 0 0-.597-.034z" opacity="1" data-original="url(#E)"></path><path fill="url(#F)" d="M499.37 171.963H342.392c-3 0-5.433-2.432-5.433-5.433v-25.134a5.432 5.432 0 0 1 5.433-5.433H499.37c3 0 5.433 2.432 5.433 5.433v25.134c0 3-2.432 5.433-5.433 5.433z" opacity="1" data-original="url(#F)"></path><path fill="url(#G)" d="M479.443 171.963H362.319a4.718 4.718 0 0 1-4.718-4.718v-26.564a4.718 4.718 0 0 1 4.718-4.718h117.124a4.718 4.718 0 0 1 4.718 4.718v26.564a4.718 4.718 0 0 1-4.718 4.718z" opacity="1" data-original="url(#G)"></path><path fill="url(#G)" d="M441.047 171.963h-40.332a2.845 2.845 0 0 1-2.845-2.845v-30.31a2.845 2.845 0 0 1 2.845-2.845h40.332a2.845 2.845 0 0 1 2.845 2.845v30.31a2.845 2.845 0 0 1-2.845 2.845z" opacity="1" data-original="url(#G)"></path><path fill="url(#H)" d="M347.13 140.343c-3 0-5.433 2.432-5.433 5.433v25.134c0 .349.036.688.099 1.019.196.021.395.034.597.034H499.37c3 0 5.433-2.432 5.433-5.433v-25.134c0-.349-.036-.689-.099-1.019a5.598 5.598 0 0 0-.597-.034z" opacity="1" data-original="url(#H)"></path><path fill="url(#I)" d="m417.693 267.673-14.426-75.654c-10.76-56.43-60.101-97.252-117.548-97.252h-54.124c-57.447 0-106.788 40.822-117.548 97.252l-8.179 42.893c-7.86 41.22-20.424 81.546-39.214 119.067-5.494 10.97-8.379 23.472-7.838 36.698 1.563 38.265 35.24 71.191 73.53 71.94l.841.012c17.372.15 34.098 6.92 46.281 19.305 13.616 13.842 32.556 22.427 53.509 22.427 25.429 0 47.899-12.642 61.483-31.981 4.373-6.226 11.545-9.764 19.154-9.749h.132c3.269 0 6.481-.242 9.62-.708 5.92-.877 11.909.634 16.796 4.09 13.217 9.349 29.583 14.539 47.201 13.647 37.704-1.908 68.46-32.09 71.022-69.755.922-13.552-1.759-26.397-7.177-37.679-15.902-33.114-26.635-68.47-33.515-104.553z" opacity="1" data-original="url(#I)"></path><circle cx="133.85" cy="387.531" r="75.099" fill="url(#J)" opacity="1" data-original="url(#J)"></circle><circle cx="232.977" cy="429.261" r="75.099" fill="url(#K)" opacity="1" data-original="url(#K)"></circle><circle cx="383.464" cy="404.66" r="75.099" fill="url(#L)" opacity="1" data-original="url(#L)"></circle><path fill="url(#M)" d="M458.384 409.905c.922-13.552-1.759-26.397-7.177-37.679-15.902-33.114-26.634-68.47-33.514-104.554l-14.426-75.654c-3.904-20.476-12.908-38.879-25.515-54.041-20.866-17.277-47.576-27.494-76.316-27.494h-54.125c-57.446 0-106.788 40.822-117.548 97.252l-8.179 42.893c-7.86 41.22-20.424 81.546-39.214 119.066-5.494 10.97-8.379 23.472-7.839 36.698.615 15.055 6.216 29.272 15.098 41.039 12.223 9.206 27.083 14.878 42.716 15.184l.841.012c17.372.15 34.099 6.92 46.282 19.305 13.616 13.842 32.556 22.427 53.509 22.427 25.429 0 47.899-12.642 61.483-31.981 4.373-6.226 11.545-9.764 19.154-9.749h.132c3.269 0 6.481-.242 9.62-.708 5.92-.877 11.909.634 16.796 4.09 13.217 9.349 29.583 14.539 47.201 13.647 37.703-1.906 68.46-32.088 71.021-69.753z" opacity="1" data-original="url(#M)"></path><path fill="url(#N)" d="M302.289 183.171c-5.437-1.682-10.603-2.893-15.496-3.64-2.36-.361-4.744-.653-7.147-.883l-.058-.033-11.009-11.402c-2.174-1.419-4.532-2.133-7.068-2.133-2.902 0-5.348.676-7.34 2.018-1.996 1.346-2.99 2.944-2.99 4.787v7.059c-15.767 2.217-28.772 8.041-39.009 17.466-10.242 9.425-15.359 22.359-15.359 38.806 0 6.707 1.177 12.824 3.533 18.35 2.354 5.53 5.073 10.058 8.157 13.592l42.679 42.718v25.379c-7.068-1.266-14.773-4.847-23.106-10.738-8.339-5.887-14.23-8.835-17.671-8.835-4.893 0-9.199 2.54-12.913 7.612-3.716 5.076-5.572 10.152-5.572 15.224 0 6.61 3.243 12.716 9.718 18.321l106.426 106.426c1.8-.421 3.662-.638 5.552-.634h.132c3.269 0 6.481-.242 9.62-.708 5.92-.877 11.909.634 16.796 4.09 13.217 9.349 29.583 14.539 47.201 13.647 37.704-1.908 68.46-32.09 71.022-69.755.922-13.552-1.759-26.397-7.177-37.679-11.067-23.046-19.624-47.18-26.128-71.888L315.473 190.732c-3.356-3.36-7.747-5.879-13.184-7.561z" opacity="1" data-original="url(#N)"></path><path fill="url(#O)" d="M321.998 294.208c-2.27-5.798-4.987-10.603-8.156-14.408-3.174-3.806-7.387-7.429-12.642-10.874-5.258-3.441-9.968-6.069-14.136-7.883-4.17-1.81-9.242-3.895-15.222-6.253V215.1c6.523.544 12.819 2.357 18.893 5.437 6.07 3.084 10.373 4.622 12.913 4.622 5.254 0 9.379-2.579 12.369-7.735 2.99-5.157 4.485-10.135 4.485-14.926 0-4.481-1.677-8.401-5.029-11.766-3.356-3.36-7.747-5.878-13.184-7.561-5.437-1.682-10.603-2.893-15.496-3.64a130.788 130.788 0 0 0-14.951-1.402v-6.274c0-1.674-1.088-3.22-3.263-4.643-2.174-1.419-4.532-2.132-7.068-2.132-2.902 0-5.348.676-7.34 2.018-1.996 1.346-2.99 2.944-2.99 4.787v7.059c-15.767 2.217-28.772 8.041-39.009 17.466-10.242 9.425-15.359 22.359-15.359 38.806 0 6.707 1.176 12.824 3.533 18.35 2.354 5.53 5.073 10.058 8.157 13.592 3.079 3.534 7.429 6.979 13.048 10.33 5.615 3.356 10.331 5.845 14.136 7.475 3.806 1.631 8.971 3.717 15.495 6.253v44.039c-7.068-1.266-14.773-4.847-23.106-10.738-8.339-5.887-14.23-8.835-17.671-8.835-4.893 0-9.199 2.54-12.913 7.612-3.716 5.076-5.572 10.152-5.572 15.224 0 8.882 5.845 16.854 17.534 23.923 11.69 7.068 25.596 10.874 41.728 11.417v6.796c0 1.992.995 3.712 2.99 5.165 1.992 1.448 4.438 2.175 7.34 2.175 2.535 0 4.894-.773 7.068-2.311 2.176-1.542 3.263-3.22 3.263-5.029v-7.884c16.311-2.718 29.312-9.149 39.009-19.301 9.694-10.148 14.544-23.468 14.544-39.962-.001-7.067-1.134-13.498-3.398-19.299zM253.9 248.265c-11.6-4.893-17.399-10.602-17.399-17.126 0-7.79 5.798-12.866 17.399-15.224zm15.223 86.719v-36.427c11.052 5.258 16.583 11.689 16.583 19.301 0 8.881-5.531 14.59-16.583 17.126z" opacity="1" data-original="url(#O)"></path><path fill="url(#P)" d="M295.542 94.766h-73.771l-33.562-64.34c-4.955-9.498.702-21.08 11.239-23.012l21.979-4.03a206.44 206.44 0 0 1 74.459 0l21.979 4.03c10.537 1.932 16.194 13.513 11.239 23.012z" opacity="1" data-original="url(#P)"></path><path fill="url(#Q)" d="M270.924 94.766h-24.535l-11.162-64.34c-1.648-9.498.234-21.08 3.738-23.012l7.31-4.03c8.186-4.513 16.577-4.513 24.764 0l7.31 4.03c3.505 1.932 5.386 13.513 3.738 23.012z" opacity="1" data-original="url(#Q)"></path><path fill="url(#R)" d="M327.996 13.889c1.438 2.046.714 4.897-1.517 6.028a36.737 36.737 0 0 1-33.31 0l-9.253-4.698a36.737 36.737 0 0 0-33.31 0l-9.241 4.698a36.74 36.74 0 0 1-33.311 0l-9.679-4.923c-3.391-1.725-2.759-6.854.98-7.556l.095-.018 21.979-4.038a206.738 206.738 0 0 1 74.456 0l21.979 4.038a15.742 15.742 0 0 1 10.132 6.469z" opacity="1" data-original="url(#R)"></path><path fill="url(#S)" d="M329.318 22.907a21.085 21.085 0 0 0 1.115-3.669c-1.445-5.774-6.074-10.633-12.567-11.824l-21.979-4.03a206.44 206.44 0 0 0-74.459 0L205.035 6.39c-2.054 4.921-2.316 11.025-.052 16.517L234.6 94.766h60.943l19.812-37.981z" opacity="1" data-original="url(#S)"></path><path fill="url(#T)" d="M258.657 101.979c-15.991 0-31.127-1.033-43.531-2.942-4.085-.629-6.825-4.523-6.001-8.573.766-3.766 4.344-6.273 8.143-5.691 11.65 1.786 26.305 2.786 41.389 2.786 15.083 0 29.738-1 41.389-2.786a7.199 7.199 0 0 1 8.143 5.691c.824 4.05-1.916 7.945-6.001 8.573-12.404 1.909-27.54 2.942-43.531 2.942z" opacity="1" data-original="url(#T)"></path><path fill="url(#U)" d="M172.869 298.169c-.573-2.387-2.699-4.168-5.261-4.168H90.937c-6.584 20.562-14.602 40.644-24.284 59.977-5.494 10.97-8.379 23.472-7.839 36.698 1.563 38.265 35.241 71.191 73.531 71.94l.841.012c17.372.15 34.099 6.92 46.282 19.305 13.616 13.842 32.556 22.427 53.509 22.427 25.429 0 47.899-12.642 61.483-31.981 4.373-6.226 11.545-9.764 19.154-9.749h.132c3.269 0 6.481-.242 9.62-.708 5.92-.877 11.909.634 16.796 4.09.561.397 1.135.776 1.708 1.157z" opacity="1" data-original="url(#U)"></path><path fill="url(#V)" d="M167.608 510H10.63c-3 0-5.433-2.432-5.433-5.433v-25.134A5.432 5.432 0 0 1 10.63 474h156.978c3 0 5.433 2.432 5.433 5.433v25.134a5.433 5.433 0 0 1-5.433 5.433z" opacity="1" data-original="url(#V)"></path><path fill="url(#W)" d="M147.681 510H30.557a4.718 4.718 0 0 1-4.718-4.718v-26.564A4.718 4.718 0 0 1 30.557 474h117.124a4.718 4.718 0 0 1 4.718 4.718v26.564a4.718 4.718 0 0 1-4.718 4.718z" opacity="1" data-original="url(#W)"></path><path fill="url(#W)" d="M109.285 510H68.953a2.845 2.845 0 0 1-2.845-2.845v-30.31A2.845 2.845 0 0 1 68.953 474h40.332a2.845 2.845 0 0 1 2.845 2.845v30.31a2.845 2.845 0 0 1-2.845 2.845z" opacity="1" data-original="url(#W)"></path><path fill="url(#X)" d="M15.367 478.38a5.432 5.432 0 0 0-5.433 5.433v25.134c0 .349.036.689.099 1.019.196.021.395.034.597.034h156.978a5.432 5.432 0 0 0 5.433-5.433v-25.134c0-.349-.036-.689-.099-1.019a5.598 5.598 0 0 0-.597-.034z" opacity="1" data-original="url(#X)"></path><path fill="url(#Y)" d="M167.608 474H10.63c-3 0-5.433-2.432-5.433-5.433v-25.134A5.432 5.432 0 0 1 10.63 438h156.978c3 0 5.433 2.432 5.433 5.433v25.134a5.433 5.433 0 0 1-5.433 5.433z" opacity="1" data-original="url(#Y)"></path><path fill="url(#Z)" d="M147.681 474H30.557a4.718 4.718 0 0 1-4.718-4.718v-26.565a4.718 4.718 0 0 1 4.718-4.718h117.124a4.718 4.718 0 0 1 4.718 4.718v26.565a4.718 4.718 0 0 1-4.718 4.718z" opacity="1" data-original="url(#Z)"></path><path fill="url(#Z)" d="M109.285 474H68.953a2.845 2.845 0 0 1-2.845-2.845v-30.31A2.845 2.845 0 0 1 68.953 438h40.332a2.845 2.845 0 0 1 2.845 2.845v30.31a2.845 2.845 0 0 1-2.845 2.845z" opacity="1" data-original="url(#Z)"></path><path fill="url(#aa)" d="M15.367 442.38a5.432 5.432 0 0 0-5.433 5.433v25.134c0 .349.036.688.099 1.019.196.022.395.034.597.034h156.978a5.432 5.432 0 0 0 5.433-5.433v-25.134c0-.349-.036-.689-.099-1.019a5.347 5.347 0 0 0-.597-.034z" opacity="1" data-original="url(#aa)"></path><path fill="url(#ab)" d="M167.608 438H10.63c-3 0-5.433-2.432-5.433-5.433v-25.134c0-3 2.432-5.433 5.433-5.433h156.978c3 0 5.433 2.432 5.433 5.433v25.134a5.433 5.433 0 0 1-5.433 5.433z" opacity="1" data-original="url(#ab)"></path><path fill="url(#ac)" d="M147.681 438H30.557a4.718 4.718 0 0 1-4.718-4.718v-26.564A4.718 4.718 0 0 1 30.557 402h117.124a4.718 4.718 0 0 1 4.718 4.718v26.564a4.718 4.718 0 0 1-4.718 4.718z" opacity="1" data-original="url(#ac)"></path><path fill="url(#ac)" d="M109.285 438H68.953a2.845 2.845 0 0 1-2.845-2.845v-30.31A2.845 2.845 0 0 1 68.953 402h40.332a2.845 2.845 0 0 1 2.845 2.845v30.31a2.845 2.845 0 0 1-2.845 2.845z" opacity="1" data-original="url(#ac)"></path><path fill="url(#ad)" d="M15.367 406.38a5.432 5.432 0 0 0-5.433 5.433v25.134c0 .349.036.689.099 1.019.196.021.395.034.597.034h156.978a5.432 5.432 0 0 0 5.433-5.433v-25.134c0-.349-.036-.688-.099-1.019a5.598 5.598 0 0 0-.597-.034z" opacity="1" data-original="url(#ad)"></path><path fill="url(#ae)" d="M167.608 402H10.63c-3 0-5.433-2.432-5.433-5.433v-25.134A5.432 5.432 0 0 1 10.63 366h156.978c3 0 5.433 2.432 5.433 5.433v25.134a5.433 5.433 0 0 1-5.433 5.433z" opacity="1" data-original="url(#ae)"></path><path fill="url(#af)" d="M147.681 402H30.557a4.718 4.718 0 0 1-4.718-4.718v-26.565a4.718 4.718 0 0 1 4.718-4.718h117.124a4.718 4.718 0 0 1 4.718 4.718v26.565a4.718 4.718 0 0 1-4.718 4.718z" opacity="1" data-original="url(#af)"></path><path fill="url(#af)" d="M109.285 402H68.953a2.845 2.845 0 0 1-2.845-2.845v-30.31A2.845 2.845 0 0 1 68.953 366h40.332a2.845 2.845 0 0 1 2.845 2.845v30.31a2.845 2.845 0 0 1-2.845 2.845z" opacity="1" data-original="url(#af)"></path><path fill="url(#ag)" d="M15.367 370.38a5.432 5.432 0 0 0-5.433 5.433v25.134c0 .349.036.688.099 1.019.196.022.395.034.597.034h156.978a5.432 5.432 0 0 0 5.433-5.433v-25.134c0-.349-.036-.688-.099-1.019a5.347 5.347 0 0 0-.597-.034z" opacity="1" data-original="url(#ag)"></path><path fill="url(#ah)" d="M167.608 366.001H10.63c-3 0-5.433-2.432-5.433-5.433v-25.134c0-3 2.432-5.433 5.433-5.433h156.978c3 0 5.433 2.432 5.433 5.433v25.134c0 3-2.433 5.433-5.433 5.433z" opacity="1" data-original="url(#ah)"></path><path fill="url(#ai)" d="M147.681 366.001H30.557a4.718 4.718 0 0 1-4.718-4.718v-26.564a4.718 4.718 0 0 1 4.718-4.718h117.124a4.718 4.718 0 0 1 4.718 4.718v26.564a4.718 4.718 0 0 1-4.718 4.718z" opacity="1" data-original="url(#ai)"></path><path fill="url(#ai)" d="M109.285 366.001H68.953a2.845 2.845 0 0 1-2.845-2.845v-30.31a2.845 2.845 0 0 1 2.845-2.845h40.332a2.845 2.845 0 0 1 2.845 2.845v30.31a2.845 2.845 0 0 1-2.845 2.845z" opacity="1" data-original="url(#ai)"></path><path fill="url(#aj)" d="M15.367 334.38a5.432 5.432 0 0 0-5.433 5.433v25.134c0 .349.036.689.099 1.019.196.021.395.034.597.034h156.978a5.432 5.432 0 0 0 5.433-5.433v-25.134c0-.349-.036-.688-.099-1.019a5.598 5.598 0 0 0-.597-.034z" opacity="1" data-original="url(#aj)"></path><path fill="url(#ak)" d="M167.608 330.001H10.63c-3 0-5.433-2.432-5.433-5.433v-25.134a5.432 5.432 0 0 1 5.433-5.433h156.978c3 0 5.433 2.432 5.433 5.433v25.134c0 3-2.433 5.433-5.433 5.433z" opacity="1" data-original="url(#ak)"></path><path fill="url(#al)" d="M147.681 330.001H30.557a4.718 4.718 0 0 1-4.718-4.718v-26.565A4.718 4.718 0 0 1 30.557 294h117.124a4.718 4.718 0 0 1 4.718 4.718v26.565a4.718 4.718 0 0 1-4.718 4.718z" opacity="1" data-original="url(#al)"></path><path fill="url(#al)" d="M109.285 330.001H68.953a2.845 2.845 0 0 1-2.845-2.845v-30.31a2.845 2.845 0 0 1 2.845-2.845h40.332a2.845 2.845 0 0 1 2.845 2.845v30.31a2.845 2.845 0 0 1-2.845 2.845z" opacity="1" data-original="url(#al)"></path><path fill="url(#am)" d="M15.367 298.381a5.432 5.432 0 0 0-5.433 5.433v25.134c0 .349.036.688.099 1.019.196.021.395.034.597.034h156.978a5.432 5.432 0 0 0 5.433-5.433v-25.134c0-.349-.036-.688-.099-1.019a5.598 5.598 0 0 0-.597-.034z" opacity="1" data-original="url(#am)"></path><path fill="url(#an)" d="M461.953 510H304.975a5.432 5.432 0 0 1-5.433-5.433v-25.134a5.432 5.432 0 0 1 5.433-5.433h156.978c3 0 5.433 2.432 5.433 5.433v25.134a5.433 5.433 0 0 1-5.433 5.433z" opacity="1" data-original="url(#an)"></path><path fill="url(#ao)" d="M442.026 510H324.902a4.718 4.718 0 0 1-4.718-4.718v-26.564a4.718 4.718 0 0 1 4.718-4.718h117.124a4.718 4.718 0 0 1 4.718 4.718v26.564a4.718 4.718 0 0 1-4.718 4.718z" opacity="1" data-original="url(#ao)"></path><path fill="url(#ao)" d="M403.63 510h-40.332a2.845 2.845 0 0 1-2.845-2.845v-30.31a2.845 2.845 0 0 1 2.845-2.845h40.332a2.845 2.845 0 0 1 2.845 2.845v30.31A2.845 2.845 0 0 1 403.63 510z" opacity="1" data-original="url(#ao)"></path><path fill="url(#ap)" d="M309.712 478.38c-3 0-5.433 2.432-5.433 5.433v25.134c0 .349.036.689.099 1.019.196.021.395.034.597.034h156.978c3 0 5.433-2.432 5.433-5.433v-25.134c0-.349-.036-.689-.099-1.019a5.598 5.598 0 0 0-.597-.034z" opacity="1" data-original="url(#ap)"></path><path fill="url(#aq)" d="M461.953 474H304.975a5.432 5.432 0 0 1-5.433-5.433v-25.134a5.432 5.432 0 0 1 5.433-5.433h156.978c3 0 5.433 2.432 5.433 5.433v25.134a5.433 5.433 0 0 1-5.433 5.433z" opacity="1" data-original="url(#aq)"></path><path fill="url(#ar)" d="M442.026 474H324.902a4.718 4.718 0 0 1-4.718-4.718v-26.565a4.718 4.718 0 0 1 4.718-4.718h117.124a4.718 4.718 0 0 1 4.718 4.718v26.565a4.718 4.718 0 0 1-4.718 4.718z" opacity="1" data-original="url(#ar)"></path><path fill="url(#ar)" d="M403.63 474h-40.332a2.845 2.845 0 0 1-2.845-2.845v-30.31a2.845 2.845 0 0 1 2.845-2.845h40.332a2.845 2.845 0 0 1 2.845 2.845v30.31A2.845 2.845 0 0 1 403.63 474z" opacity="1" data-original="url(#ar)"></path><path fill="url(#as)" d="M309.712 442.38c-3 0-5.433 2.432-5.433 5.433v25.134c0 .349.036.688.099 1.019.196.022.395.034.597.034h156.978c3 0 5.433-2.432 5.433-5.433v-25.134c0-.349-.036-.689-.099-1.019a5.347 5.347 0 0 0-.597-.034z" opacity="1" data-original="url(#as)"></path><path fill="url(#at)" d="M93.055 209.679a127.326 127.326 0 0 0-37.525 37.748c-2.182 3.39-7.216 3.381-9.385-.017a127.345 127.345 0 0 0-37.387-37.884c-3.325-2.184-3.316-7.149.017-9.321A127.334 127.334 0 0 0 46.3 162.458c2.181-3.39 7.216-3.381 9.385.017a127.337 127.337 0 0 0 37.388 37.884c3.324 2.183 3.315 7.149-.018 9.32z" opacity="1" data-original="url(#at)"></path><path fill="url(#au)" d="M152.859 73.491a90.041 90.041 0 0 0-26.536 26.694c-1.543 2.397-5.103 2.391-6.637-.012a90.051 90.051 0 0 0-26.439-26.79c-2.351-1.544-2.345-5.056.012-6.592a90.041 90.041 0 0 0 26.536-26.694c1.543-2.397 5.103-2.391 6.637.012a90.051 90.051 0 0 0 26.439 26.79c2.351 1.545 2.345 5.056-.012 6.592z" opacity="1" data-original="url(#au)"></path><path fill="url(#av)" d="M441.229 98.116a90.041 90.041 0 0 0-26.536 26.694c-1.543 2.397-5.103 2.391-6.637-.012a90.051 90.051 0 0 0-26.439-26.79c-2.351-1.544-2.345-5.056.012-6.592a90.041 90.041 0 0 0 26.536-26.694c1.543-2.397 5.103-2.391 6.637.012a90.063 90.063 0 0 0 26.439 26.79c2.351 1.545 2.345 5.056-.012 6.592z" opacity="1" data-original="url(#av)"></path></g></svg>