<svg xmlns="http://www.w3.org/2000/svg" version="1.1" xmlns:xlink="http://www.w3.org/1999/xlink" width="512" height="512" x="0" y="0" viewBox="0 0 512 512" style="enable-background:new 0 0 512 512" xml:space="preserve" class=""><g><path d="M477.701 128a23.258 23.258 0 0 0-8.518-8.518L267.637 3.119a23.27 23.27 0 0 0-23.273 0L42.82 119.482A23.266 23.266 0 0 0 34.302 128l221.699 128 221.7-128z" style="" fill="#00d7df" data-original="#00d7df"></path><path d="M256.001 512a23.25 23.25 0 0 0 11.636-3.119l201.545-116.364a23.272 23.272 0 0 0 11.636-20.154V139.636c0-4.158-1.109-8.156-3.119-11.636L256.001 256v256z" style="" fill="#5286fa" data-original="#5286fa"></path><path d="M244.364 508.881A23.253 23.253 0 0 0 256 512V256L34.3 128a23.256 23.256 0 0 0-3.119 11.636v232.727a23.27 23.27 0 0 0 11.636 20.154l201.547 116.364z" style="" fill="#424ede" data-original="#424ede"></path></g></svg>