<svg xmlns="http://www.w3.org/2000/svg" version="1.1" xmlns:xlink="http://www.w3.org/1999/xlink" width="512" height="512" x="0" y="0" viewBox="0 0 512 512" style="enable-background:new 0 0 512 512" xml:space="preserve" class=""><g><path fill="#ff6186" d="M369.928 505.582H142.072l113.943-55.65z" opacity="1" data-original="#ff6186" class=""></path><path fill="#ff8954" d="M142.072 505.582 0 327.433l116.724 49.831z" opacity="1" data-original="#ff8954" class=""></path><path fill="#b295f3" d="M512 327.433 369.928 505.582l23.235-128.318z" opacity="1" data-original="#b295f3" class=""></path><path fill="#ffce4b" d="M99 237.644 0 327.433l50.705-222.149z" opacity="1" data-original="#ffce4b"></path><path fill="#6de49e" d="M461.295 105.284 334.5 115.477 256 6.418zM256 6.418l-78.479 103.823-126.816-4.957z" opacity="1" data-original="#6de49e"></path><path fill="#51c7ec" d="m512 327.433-80.603-99.388 29.898-122.761z" opacity="1" data-original="#51c7ec"></path><path fill="#ffdf6b" d="m168.826 87.967-26.754 80.602-81.981 55.66-9.386-118.945z" opacity="1" data-original="#ffdf6b"></path><path fill="#ffa44d" d="M99 394.374 0 327.433l60.091-103.204L99 305.709z" opacity="1" data-original="#ffa44d"></path><path fill="#9cf19d" d="m343.205 87.977-87.19 22.264-87.189-22.274L256 6.418z" opacity="1" data-original="#9cf19d"></path><path fill="#64d1fb" d="m512 327.433-99 66.848v-91.19l38.848-78.718z" opacity="1" data-original="#64d1fb"></path><path fill="#b3e5ff" d="m461.295 105.284-9.447 119.089-74.554-55.804-34.089-80.592z" opacity="1" data-original="#b3e5ff"></path><path fill="#c7aef5" d="m413 394.281-43.072 111.301L256 469.886l64.574-58.59z" opacity="1" data-original="#c7aef5" class=""></path><path fill="#ff738f" d="m256 469.886-113.928 35.696L99 394.374l94.081 11.96z" opacity="1" data-original="#ff738f"></path><path fill="#ffce4b" d="m193.081 218.785-132.99 5.444L168.826 87.967z" opacity="1" data-original="#ffce4b"></path><path fill="#ff8954" d="M173.358 287.817 99 394.374 60.091 224.229z" opacity="1" data-original="#ff8954" class=""></path><path fill="#6de49e" d="M343.205 87.977 256 189.068 168.826 87.967z" opacity="1" data-original="#6de49e"></path><path fill="#84ddff" d="M451.848 224.373H311.916l31.289-136.396z" opacity="1" data-original="#84ddff"></path><path fill="#51c7ec" d="M451.848 224.373 413 394.281l-78.521-107.412z" opacity="1" data-original="#51c7ec"></path><path fill="#b295f3" d="m413 394.281-157 75.605 34.478-129.336z" opacity="1" data-original="#b295f3" class=""></path><path fill="#ff6186" d="M256 469.886 99 394.374l122.522-53.824z" opacity="1" data-original="#ff6186" class=""></path><path fill="#b3e5ff" d="m343.205 87.977-8.726 118.389-47.384 3.645L256 168.569z" opacity="1" data-original="#b3e5ff"></path><path fill="#64d1fb" d="m451.848 224.373-97.981 66.911-19.388-32.406v-52.512z" opacity="1" data-original="#64d1fb"></path><path fill="#ff738f" d="M299.556 359.389 256 469.886l-43.556-110.497L256 342.782z" opacity="1" data-original="#ff738f"></path><path fill="#ffa44d" d="M212.444 359.389 99 394.374l59.133-103.09 48.933 18.018z" opacity="1" data-original="#ffa44d"></path><path fill="#ffdf6b" d="m177.521 206.366 11.578 47.276-30.966 37.642-98.042-67.055z" opacity="1" data-original="#ffdf6b"></path><path fill="#9cf19d" d="m256 168.569-21.525 37.797h-56.954l-8.695-118.399z" opacity="1" data-original="#9cf19d"></path><path fill="#c7aef5" d="m413 394.281-113.444-34.892 10.547-40.591 43.764-27.514z" opacity="1" data-original="#c7aef5" class=""></path><path fill="#84ddff" d="m334.479 206.366-29.545 42.459L256 269.001l-16.289-50.216L256 168.569z" opacity="1" data-original="#84ddff"></path><path fill="#51c7ec" d="m353.867 291.284-54.265 3.081L256 269.001l78.479-62.635z" opacity="1" data-original="#51c7ec"></path><path fill="#ff8954" d="m256 269.001-5.817 53.869-37.739 36.519-54.311-68.105 48.933-27.17z" opacity="1" data-original="#ff8954" class=""></path><path fill="#6de49e" d="M256 168.569v100.432l-48.934-20.176-29.545-42.459z" opacity="1" data-original="#6de49e"></path><path fill="#ffce4b" d="m256 269.001-97.867 22.283 19.388-84.918z" opacity="1" data-original="#ffce4b"></path><path fill="#ff6186" d="M299.556 359.389h-87.112L256 269.001l34.323 40.301z" opacity="1" data-original="#ff6186" class=""></path><path fill="#b295f3" d="m353.867 291.284-54.311 68.105L256 269.001z" opacity="1" data-original="#b295f3" class=""></path></g></svg>