<svg xmlns="http://www.w3.org/2000/svg" version="1.1" xmlns:xlink="http://www.w3.org/1999/xlink" width="512" height="512" x="0" y="0" viewBox="0 0 280.028 280.028" style="enable-background:new 0 0 512 512" xml:space="preserve" class=""><g><path d="M140.014 0c77.331 0 140.014 62.682 140.014 140.014 0 77.323-62.682 140.014-140.014 140.014S0 217.336 0 140.014C0 62.682 62.682 0 140.014 0z" style="" fill="#e4e7e7" data-original="#e4e7e7"></path><path d="M140.014 43.746c53.161 0 96.259 43.098 96.259 96.259 0 53.153-43.098 96.259-96.259 96.259s-96.259-43.107-96.259-96.259c-.001-53.162 43.097-96.259 96.259-96.259z" style="" fill="#26a6d1" data-original="#26a6d1"></path><path d="M140.014 87.5c28.992 0 52.505 23.505 52.505 52.505s-23.514 52.505-52.505 52.505-52.505-23.505-52.505-52.505S111.022 87.5 140.014 87.5z" style="" fill="#324d5b" data-original="#324d5b"></path><path d="M179.393 87.5c12.085 0 21.877 9.792 21.877 21.877s-9.792 21.877-21.877 21.877c-12.085 0-21.877-9.792-21.877-21.877S167.308 87.5 179.393 87.5z" style="" fill="#d4edf6" data-original="#d4edf6"></path><path d="M191.04 127.841c-3.544-14.911-13.406-27.355-26.655-34.312-4.209 3.982-6.869 9.591-6.869 15.848 0 12.085 9.792 21.877 21.877 21.877 4.296 0 8.269-1.278 11.647-3.413z" style="" fill="#d6dbde" data-original="#d6dbde"></path><path d="M148.765 227.513c-53.161 0-96.259-43.107-96.259-96.259 0-24.354 9.118-46.528 24.03-63.479-20.057 17.642-32.781 43.422-32.781 72.23 0 53.153 43.098 96.259 96.259 96.259 28.808 0 54.588-12.724 72.23-32.781-16.96 14.912-39.126 24.03-63.479 24.03z" style="" fill="#2296bd" data-original="#2296bd"></path></g></svg>